<svg width="362" height="19" viewBox="0 0 362 19" fill="none" xmlns="http://www.w3.org/2000/svg">
<path d="M7.25308 14.126C6.08908 14.126 5.01508 13.856 4.03108 13.316C3.05908 12.764 2.28508 12.002 1.70908 11.03C1.14508 10.046 0.863083 8.942 0.863083 7.718C0.863083 6.494 1.14508 5.396 1.70908 4.424C2.28508 3.452 3.05908 2.696 4.03108 2.156C5.01508 1.604 6.08908 1.328 7.25308 1.328C8.42908 1.328 9.50308 1.604 10.4751 2.156C11.4591 2.696 12.2331 3.452 12.7971 4.424C13.3611 5.396 13.6431 6.494 13.6431 7.718C13.6431 8.942 13.3611 10.046 12.7971 11.03C12.2331 12.002 11.4591 12.764 10.4751 13.316C9.50308 13.856 8.42908 14.126 7.25308 14.126ZM7.25308 12.344C8.08108 12.344 8.81908 12.158 9.46708 11.786C10.1151 11.402 10.6191 10.862 10.9791 10.166C11.3511 9.458 11.5371 8.642 11.5371 7.718C11.5371 6.794 11.3511 5.984 10.9791 5.288C10.6191 4.592 10.1151 4.058 9.46708 3.686C8.81908 3.314 8.08108 3.128 7.25308 3.128C6.42508 3.128 5.68708 3.314 5.03908 3.686C4.39108 4.058 3.88108 4.592 3.50908 5.288C3.14908 5.984 2.96908 6.794 2.96908 7.718C2.96908 8.642 3.14908 9.458 3.50908 10.166C3.88108 10.862 4.39108 11.402 5.03908 11.786C5.68708 12.158 6.42508 12.344 7.25308 12.344ZM17.8143 5.522C18.1143 5.018 18.5103 4.628 19.0023 4.352C19.5063 4.064 20.1003 3.92 20.7843 3.92V6.044H20.2623C19.4583 6.044 18.8463 6.248 18.4263 6.656C18.0183 7.064 17.8143 7.772 17.8143 8.78V14H15.7623V4.082H17.8143V5.522ZM22.0865 8.996C22.0865 8 22.2905 7.118 22.6985 6.35C23.1185 5.582 23.6825 4.988 24.3905 4.568C25.1105 4.136 25.9085 3.92 26.7845 3.92C27.4325 3.92 28.0685 4.064 28.6925 4.352C29.3285 4.628 29.8325 5 30.2045 5.468V0.68H32.2745V14H30.2045V12.506C29.8685 12.986 29.4005 13.382 28.8005 13.694C28.2125 14.006 27.5345 14.162 26.7665 14.162C25.9025 14.162 25.1105 13.946 24.3905 13.514C23.6825 13.07 23.1185 12.458 22.6985 11.678C22.2905 10.886 22.0865 9.992 22.0865 8.996ZM30.2045 9.032C30.2045 8.348 30.0605 7.754 29.7725 7.25C29.4965 6.746 29.1305 6.362 28.6745 6.098C28.2185 5.834 27.7265 5.702 27.1985 5.702C26.6705 5.702 26.1785 5.834 25.7225 6.098C25.2665 6.35 24.8945 6.728 24.6065 7.232C24.3305 7.724 24.1925 8.312 24.1925 8.996C24.1925 9.68 24.3305 10.28 24.6065 10.796C24.8945 11.312 25.2665 11.708 25.7225 11.984C26.1905 12.248 26.6825 12.38 27.1985 12.38C27.7265 12.38 28.2185 12.248 28.6745 11.984C29.1305 11.72 29.4965 11.336 29.7725 10.832C30.0605 10.316 30.2045 9.716 30.2045 9.032ZM44.1597 8.798C44.1597 9.17 44.1357 9.506 44.0877 9.806H36.5097C36.5697 10.598 36.8637 11.234 37.3917 11.714C37.9197 12.194 38.5677 12.434 39.3357 12.434C40.4397 12.434 41.2197 11.972 41.6757 11.048H43.8897C43.5897 11.96 43.0437 12.71 42.2517 13.298C41.4717 13.874 40.4997 14.162 39.3357 14.162C38.3877 14.162 37.5357 13.952 36.7797 13.532C36.0357 13.1 35.4477 12.5 35.0157 11.732C34.5957 10.952 34.3857 10.052 34.3857 9.032C34.3857 8.012 34.5897 7.118 34.9977 6.35C35.4177 5.57 35.9997 4.97 36.7437 4.55C37.4997 4.13 38.3637 3.92 39.3357 3.92C40.2717 3.92 41.1057 4.124 41.8377 4.532C42.5697 4.94 43.1397 5.516 43.5477 6.26C43.9557 6.992 44.1597 7.838 44.1597 8.798ZM42.0177 8.15C42.0057 7.394 41.7357 6.788 41.2077 6.332C40.6797 5.876 40.0257 5.648 39.2457 5.648C38.5377 5.648 37.9317 5.876 37.4277 6.332C36.9237 6.776 36.6237 7.382 36.5277 8.15H42.0177ZM48.3311 5.522C48.6311 5.018 49.0271 4.628 49.5191 4.352C50.0231 4.064 50.6171 3.92 51.3011 3.92V6.044H50.7791C49.9751 6.044 49.3631 6.248 48.9431 6.656C48.5351 7.064 48.3311 7.772 48.3311 8.78V14H46.2791V4.082H48.3311V5.522ZM59.1071 2.768C58.7351 2.768 58.4231 2.642 58.1711 2.39C57.9191 2.138 57.7931 1.826 57.7931 1.454C57.7931 1.082 57.9191 0.769999 58.1711 0.518C58.4231 0.265999 58.7351 0.139999 59.1071 0.139999C59.4671 0.139999 59.7731 0.265999 60.0251 0.518C60.2771 0.769999 60.4031 1.082 60.4031 1.454C60.4031 1.826 60.2771 2.138 60.0251 2.39C59.7731 2.642 59.4671 2.768 59.1071 2.768ZM60.1151 4.082V14H58.0631V4.082H60.1151ZM65.3032 5.756V11.246C65.3032 11.618 65.3872 11.888 65.5552 12.056C65.7352 12.212 66.0352 12.29 66.4552 12.29H67.7152V14H66.0952C65.1712 14 64.4632 13.784 63.9712 13.352C63.4792 12.92 63.2332 12.218 63.2332 11.246V5.756H62.0632V4.082H63.2332V1.616H65.3032V4.082H67.7152V5.756H65.3032ZM78.6402 5.756H76.8042V14H74.7342V5.756H73.5642V4.082H74.7342V3.38C74.7342 2.24 75.0342 1.412 75.6342 0.895999C76.2462 0.368 77.2002 0.104 78.4962 0.104V1.814C77.8722 1.814 77.4342 1.934 77.1822 2.174C76.9302 2.402 76.8042 2.804 76.8042 3.38V4.082H78.6402V5.756ZM84.8608 14.162C83.9248 14.162 83.0788 13.952 82.3228 13.532C81.5668 13.1 80.9728 12.5 80.5408 11.732C80.1088 10.952 79.8928 10.052 79.8928 9.032C79.8928 8.024 80.1148 7.13 80.5588 6.35C81.0028 5.57 81.6088 4.97 82.3768 4.55C83.1448 4.13 84.0028 3.92 84.9508 3.92C85.8988 3.92 86.7568 4.13 87.5248 4.55C88.2928 4.97 88.8988 5.57 89.3428 6.35C89.7868 7.13 90.0088 8.024 90.0088 9.032C90.0088 10.04 89.7808 10.934 89.3248 11.714C88.8688 12.494 88.2448 13.1 87.4528 13.532C86.6728 13.952 85.8088 14.162 84.8608 14.162ZM84.8608 12.38C85.3888 12.38 85.8808 12.254 86.3368 12.002C86.8048 11.75 87.1828 11.372 87.4708 10.868C87.7588 10.364 87.9028 9.752 87.9028 9.032C87.9028 8.312 87.7648 7.706 87.4888 7.214C87.2128 6.71 86.8468 6.332 86.3908 6.08C85.9348 5.828 85.4428 5.702 84.9148 5.702C84.3868 5.702 83.8948 5.828 83.4388 6.08C82.9948 6.332 82.6408 6.71 82.3768 7.214C82.1128 7.706 81.9808 8.312 81.9808 9.032C81.9808 10.1 82.2508 10.928 82.7908 11.516C83.3428 12.092 84.0328 12.38 84.8608 12.38ZM94.1893 5.522C94.4893 5.018 94.8853 4.628 95.3773 4.352C95.8813 4.064 96.4753 3.92 97.1593 3.92V6.044H96.6373C95.8333 6.044 95.2213 6.248 94.8013 6.656C94.3933 7.064 94.1893 7.772 94.1893 8.78V14H92.1373V4.082H94.1893V5.522ZM112.849 4.082L106.765 18.662H104.641L106.657 13.838L102.751 4.082H105.037L107.827 11.642L110.725 4.082H112.849ZM118.8 14.162C117.864 14.162 117.018 13.952 116.262 13.532C115.506 13.1 114.912 12.5 114.48 11.732C114.048 10.952 113.832 10.052 113.832 9.032C113.832 8.024 114.054 7.13 114.498 6.35C114.942 5.57 115.548 4.97 116.316 4.55C117.084 4.13 117.942 3.92 118.89 3.92C119.838 3.92 120.696 4.13 121.464 4.55C122.232 4.97 122.838 5.57 123.282 6.35C123.726 7.13 123.948 8.024 123.948 9.032C123.948 10.04 123.72 10.934 123.264 11.714C122.808 12.494 122.184 13.1 121.392 13.532C120.612 13.952 119.748 14.162 118.8 14.162ZM118.8 12.38C119.328 12.38 119.82 12.254 120.276 12.002C120.744 11.75 121.122 11.372 121.41 10.868C121.698 10.364 121.842 9.752 121.842 9.032C121.842 8.312 121.704 7.706 121.428 7.214C121.152 6.71 120.786 6.332 120.33 6.08C119.874 5.828 119.382 5.702 118.854 5.702C118.326 5.702 117.834 5.828 117.378 6.08C116.934 6.332 116.58 6.71 116.316 7.214C116.052 7.706 115.92 8.312 115.92 9.032C115.92 10.1 116.19 10.928 116.73 11.516C117.282 12.092 117.972 12.38 118.8 12.38ZM135.058 4.082V14H133.006V12.83C132.682 13.238 132.256 13.562 131.728 13.802C131.212 14.03 130.66 14.144 130.072 14.144C129.292 14.144 128.59 13.982 127.966 13.658C127.354 13.334 126.868 12.854 126.508 12.218C126.16 11.582 125.986 10.814 125.986 9.914V4.082H128.02V9.608C128.02 10.496 128.242 11.18 128.686 11.66C129.13 12.128 129.736 12.362 130.504 12.362C131.272 12.362 131.878 12.128 132.322 11.66C132.778 11.18 133.006 10.496 133.006 9.608V4.082H135.058ZM146.944 14.162C146.008 14.162 145.162 13.952 144.406 13.532C143.65 13.1 143.056 12.5 142.624 11.732C142.192 10.952 141.976 10.052 141.976 9.032C141.976 8.024 142.198 7.13 142.642 6.35C143.086 5.57 143.692 4.97 144.46 4.55C145.228 4.13 146.086 3.92 147.034 3.92C147.982 3.92 148.84 4.13 149.608 4.55C150.376 4.97 150.982 5.57 151.426 6.35C151.87 7.13 152.092 8.024 152.092 9.032C152.092 10.04 151.864 10.934 151.408 11.714C150.952 12.494 150.328 13.1 149.536 13.532C148.756 13.952 147.892 14.162 146.944 14.162ZM146.944 12.38C147.472 12.38 147.964 12.254 148.42 12.002C148.888 11.75 149.266 11.372 149.554 10.868C149.842 10.364 149.986 9.752 149.986 9.032C149.986 8.312 149.848 7.706 149.572 7.214C149.296 6.71 148.93 6.332 148.474 6.08C148.018 5.828 147.526 5.702 146.998 5.702C146.47 5.702 145.978 5.828 145.522 6.08C145.078 6.332 144.724 6.71 144.46 7.214C144.196 7.706 144.064 8.312 144.064 9.032C144.064 10.1 144.334 10.928 144.874 11.516C145.426 12.092 146.116 12.38 146.944 12.38ZM156.272 5.522C156.572 5.018 156.968 4.628 157.46 4.352C157.964 4.064 158.558 3.92 159.242 3.92V6.044H158.72C157.916 6.044 157.304 6.248 156.884 6.656C156.476 7.064 156.272 7.772 156.272 8.78V14H154.22V4.082H156.272V5.522ZM170.162 5.756H168.326V14H166.256V5.756H165.086V4.082H166.256V3.38C166.256 2.24 166.556 1.412 167.156 0.895999C167.768 0.368 168.722 0.104 170.018 0.104V1.814C169.394 1.814 168.956 1.934 168.704 2.174C168.452 2.402 168.326 2.804 168.326 3.38V4.082H170.162V5.756ZM176.383 14.162C175.447 14.162 174.601 13.952 173.845 13.532C173.089 13.1 172.495 12.5 172.063 11.732C171.631 10.952 171.415 10.052 171.415 9.032C171.415 8.024 171.637 7.13 172.081 6.35C172.525 5.57 173.131 4.97 173.899 4.55C174.667 4.13 175.525 3.92 176.473 3.92C177.421 3.92 178.279 4.13 179.047 4.55C179.815 4.97 180.421 5.57 180.865 6.35C181.309 7.13 181.531 8.024 181.531 9.032C181.531 10.04 181.303 10.934 180.847 11.714C180.391 12.494 179.767 13.1 178.975 13.532C178.195 13.952 177.331 14.162 176.383 14.162ZM176.383 12.38C176.911 12.38 177.403 12.254 177.859 12.002C178.327 11.75 178.705 11.372 178.993 10.868C179.281 10.364 179.425 9.752 179.425 9.032C179.425 8.312 179.287 7.706 179.011 7.214C178.735 6.71 178.369 6.332 177.913 6.08C177.457 5.828 176.965 5.702 176.437 5.702C175.909 5.702 175.417 5.828 174.961 6.08C174.517 6.332 174.163 6.71 173.899 7.214C173.635 7.706 173.503 8.312 173.503 9.032C173.503 10.1 173.773 10.928 174.313 11.516C174.865 12.092 175.555 12.38 176.383 12.38ZM185.711 5.522C186.011 5.018 186.407 4.628 186.899 4.352C187.403 4.064 187.997 3.92 188.681 3.92V6.044H188.159C187.355 6.044 186.743 6.248 186.323 6.656C185.915 7.064 185.711 7.772 185.711 8.78V14H183.659V4.082H185.711V5.522ZM204.371 4.082L198.287 18.662H196.163L198.179 13.838L194.273 4.082H196.559L199.349 11.642L202.247 4.082H204.371ZM210.322 14.162C209.386 14.162 208.54 13.952 207.784 13.532C207.028 13.1 206.434 12.5 206.002 11.732C205.57 10.952 205.354 10.052 205.354 9.032C205.354 8.024 205.576 7.13 206.02 6.35C206.464 5.57 207.07 4.97 207.838 4.55C208.606 4.13 209.464 3.92 210.412 3.92C211.36 3.92 212.218 4.13 212.986 4.55C213.754 4.97 214.36 5.57 214.804 6.35C215.248 7.13 215.47 8.024 215.47 9.032C215.47 10.04 215.242 10.934 214.786 11.714C214.33 12.494 213.706 13.1 212.914 13.532C212.134 13.952 211.27 14.162 210.322 14.162ZM210.322 12.38C210.85 12.38 211.342 12.254 211.798 12.002C212.266 11.75 212.644 11.372 212.932 10.868C213.22 10.364 213.364 9.752 213.364 9.032C213.364 8.312 213.226 7.706 212.95 7.214C212.674 6.71 212.308 6.332 211.852 6.08C211.396 5.828 210.904 5.702 210.376 5.702C209.848 5.702 209.356 5.828 208.9 6.08C208.456 6.332 208.102 6.71 207.838 7.214C207.574 7.706 207.442 8.312 207.442 9.032C207.442 10.1 207.712 10.928 208.252 11.516C208.804 12.092 209.494 12.38 210.322 12.38ZM226.58 4.082V14H224.528V12.83C224.204 13.238 223.778 13.562 223.25 13.802C222.734 14.03 222.182 14.144 221.594 14.144C220.814 14.144 220.112 13.982 219.488 13.658C218.876 13.334 218.39 12.854 218.03 12.218C217.682 11.582 217.508 10.814 217.508 9.914V4.082H219.542V9.608C219.542 10.496 219.764 11.18 220.208 11.66C220.652 12.128 221.258 12.362 222.026 12.362C222.794 12.362 223.4 12.128 223.844 11.66C224.3 11.18 224.528 10.496 224.528 9.608V4.082H226.58ZM231.44 5.522C231.74 5.018 232.136 4.628 232.628 4.352C233.132 4.064 233.726 3.92 234.41 3.92V6.044H233.888C233.084 6.044 232.472 6.248 232.052 6.656C231.644 7.064 231.44 7.772 231.44 8.78V14H229.388V4.082H231.44V5.522ZM243.224 5.558C243.572 5.078 244.046 4.688 244.646 4.388C245.258 4.076 245.936 3.92 246.68 3.92C247.556 3.92 248.348 4.13 249.056 4.55C249.764 4.97 250.322 5.57 250.73 6.35C251.138 7.118 251.342 8 251.342 8.996C251.342 9.992 251.138 10.886 250.73 11.678C250.322 12.458 249.758 13.07 249.038 13.514C248.33 13.946 247.544 14.162 246.68 14.162C245.912 14.162 245.228 14.012 244.628 13.712C244.04 13.412 243.572 13.028 243.224 12.56V14H241.172V0.68H243.224V5.558ZM249.254 8.996C249.254 8.312 249.11 7.724 248.822 7.232C248.546 6.728 248.174 6.35 247.706 6.098C247.25 5.834 246.758 5.702 246.23 5.702C245.714 5.702 245.222 5.834 244.754 6.098C244.298 6.362 243.926 6.746 243.638 7.25C243.362 7.754 243.224 8.348 243.224 9.032C243.224 9.716 243.362 10.316 243.638 10.832C243.926 11.336 244.298 11.72 244.754 11.984C245.222 12.248 245.714 12.38 246.23 12.38C246.758 12.38 247.25 12.248 247.706 11.984C248.174 11.708 248.546 11.312 248.822 10.796C249.11 10.28 249.254 9.68 249.254 8.996ZM262.561 8.798C262.561 9.17 262.537 9.506 262.489 9.806H254.911C254.971 10.598 255.265 11.234 255.793 11.714C256.321 12.194 256.969 12.434 257.737 12.434C258.841 12.434 259.621 11.972 260.077 11.048H262.291C261.991 11.96 261.445 12.71 260.653 13.298C259.873 13.874 258.901 14.162 257.737 14.162C256.789 14.162 255.937 13.952 255.181 13.532C254.437 13.1 253.849 12.5 253.417 11.732C252.997 10.952 252.787 10.052 252.787 9.032C252.787 8.012 252.991 7.118 253.399 6.35C253.819 5.57 254.401 4.97 255.145 4.55C255.901 4.13 256.765 3.92 257.737 3.92C258.673 3.92 259.507 4.124 260.239 4.532C260.971 4.94 261.541 5.516 261.949 6.26C262.357 6.992 262.561 7.838 262.561 8.798ZM260.419 8.15C260.407 7.394 260.137 6.788 259.609 6.332C259.081 5.876 258.427 5.648 257.647 5.648C256.939 5.648 256.333 5.876 255.829 6.332C255.325 6.776 255.025 7.382 254.929 8.15H260.419ZM266.732 0.68V14H264.68V0.68H266.732ZM273.828 14.162C272.892 14.162 272.046 13.952 271.29 13.532C270.534 13.1 269.94 12.5 269.508 11.732C269.076 10.952 268.86 10.052 268.86 9.032C268.86 8.024 269.082 7.13 269.526 6.35C269.97 5.57 270.576 4.97 271.344 4.55C272.112 4.13 272.97 3.92 273.918 3.92C274.866 3.92 275.724 4.13 276.492 4.55C277.26 4.97 277.866 5.57 278.31 6.35C278.754 7.13 278.976 8.024 278.976 9.032C278.976 10.04 278.748 10.934 278.292 11.714C277.836 12.494 277.212 13.1 276.42 13.532C275.64 13.952 274.776 14.162 273.828 14.162ZM273.828 12.38C274.356 12.38 274.848 12.254 275.304 12.002C275.772 11.75 276.15 11.372 276.438 10.868C276.726 10.364 276.87 9.752 276.87 9.032C276.87 8.312 276.732 7.706 276.456 7.214C276.18 6.71 275.814 6.332 275.358 6.08C274.902 5.828 274.41 5.702 273.882 5.702C273.354 5.702 272.862 5.828 272.406 6.08C271.962 6.332 271.608 6.71 271.344 7.214C271.08 7.706 270.948 8.312 270.948 9.032C270.948 10.1 271.218 10.928 271.758 11.516C272.31 12.092 273 12.38 273.828 12.38ZM284.939 12.164L287.747 4.082H289.925L286.145 14H283.697L279.935 4.082H282.131L284.939 12.164ZM300.666 8.798C300.666 9.17 300.642 9.506 300.594 9.806H293.016C293.076 10.598 293.37 11.234 293.898 11.714C294.426 12.194 295.074 12.434 295.842 12.434C296.946 12.434 297.726 11.972 298.182 11.048H300.396C300.096 11.96 299.55 12.71 298.758 13.298C297.978 13.874 297.006 14.162 295.842 14.162C294.894 14.162 294.042 13.952 293.286 13.532C292.542 13.1 291.954 12.5 291.522 11.732C291.102 10.952 290.892 10.052 290.892 9.032C290.892 8.012 291.096 7.118 291.504 6.35C291.924 5.57 292.506 4.97 293.25 4.55C294.006 4.13 294.87 3.92 295.842 3.92C296.778 3.92 297.612 4.124 298.344 4.532C299.076 4.94 299.646 5.516 300.054 6.26C300.462 6.992 300.666 7.838 300.666 8.798ZM298.524 8.15C298.512 7.394 298.242 6.788 297.714 6.332C297.186 5.876 296.532 5.648 295.752 5.648C295.044 5.648 294.438 5.876 293.934 6.332C293.43 6.776 293.13 7.382 293.034 8.15H298.524ZM302.101 8.996C302.101 8 302.305 7.118 302.713 6.35C303.133 5.582 303.697 4.988 304.405 4.568C305.125 4.136 305.923 3.92 306.799 3.92C307.447 3.92 308.083 4.064 308.707 4.352C309.343 4.628 309.847 5 310.219 5.468V0.68H312.289V14H310.219V12.506C309.883 12.986 309.415 13.382 308.815 13.694C308.227 14.006 307.549 14.162 306.781 14.162C305.917 14.162 305.125 13.946 304.405 13.514C303.697 13.07 303.133 12.458 302.713 11.678C302.305 10.886 302.101 9.992 302.101 8.996ZM310.219 9.032C310.219 8.348 310.075 7.754 309.787 7.25C309.511 6.746 309.145 6.362 308.689 6.098C308.233 5.834 307.741 5.702 307.213 5.702C306.685 5.702 306.193 5.834 305.737 6.098C305.281 6.35 304.909 6.728 304.621 7.232C304.345 7.724 304.207 8.312 304.207 8.996C304.207 9.68 304.345 10.28 304.621 10.796C304.909 11.312 305.281 11.708 305.737 11.984C306.205 12.248 306.697 12.38 307.213 12.38C307.741 12.38 308.233 12.248 308.689 11.984C309.145 11.72 309.511 11.336 309.787 10.832C310.075 10.316 310.219 9.716 310.219 9.032ZM324.162 14.162C323.226 14.162 322.38 13.952 321.624 13.532C320.868 13.1 320.274 12.5 319.842 11.732C319.41 10.952 319.194 10.052 319.194 9.032C319.194 8.024 319.416 7.13 319.86 6.35C320.304 5.57 320.91 4.97 321.678 4.55C322.446 4.13 323.304 3.92 324.252 3.92C325.2 3.92 326.058 4.13 326.826 4.55C327.594 4.97 328.2 5.57 328.644 6.35C329.088 7.13 329.31 8.024 329.31 9.032C329.31 10.04 329.082 10.934 328.626 11.714C328.17 12.494 327.546 13.1 326.754 13.532C325.974 13.952 325.11 14.162 324.162 14.162ZM324.162 12.38C324.69 12.38 325.182 12.254 325.638 12.002C326.106 11.75 326.484 11.372 326.772 10.868C327.06 10.364 327.204 9.752 327.204 9.032C327.204 8.312 327.066 7.706 326.79 7.214C326.514 6.71 326.148 6.332 325.692 6.08C325.236 5.828 324.744 5.702 324.216 5.702C323.688 5.702 323.196 5.828 322.74 6.08C322.296 6.332 321.942 6.71 321.678 7.214C321.414 7.706 321.282 8.312 321.282 9.032C321.282 10.1 321.552 10.928 322.092 11.516C322.644 12.092 323.334 12.38 324.162 12.38ZM336.443 3.92C337.223 3.92 337.919 4.082 338.531 4.406C339.155 4.73 339.641 5.21 339.989 5.846C340.337 6.482 340.511 7.25 340.511 8.15V14H338.477V8.456C338.477 7.568 338.255 6.89 337.811 6.422C337.367 5.942 336.761 5.702 335.993 5.702C335.225 5.702 334.613 5.942 334.157 6.422C333.713 6.89 333.491 7.568 333.491 8.456V14H331.439V4.082H333.491V5.216C333.827 4.808 334.253 4.49 334.769 4.262C335.297 4.034 335.855 3.92 336.443 3.92ZM352.318 8.798C352.318 9.17 352.294 9.506 352.246 9.806H344.668C344.728 10.598 345.022 11.234 345.55 11.714C346.078 12.194 346.726 12.434 347.494 12.434C348.598 12.434 349.378 11.972 349.834 11.048H352.048C351.748 11.96 351.202 12.71 350.41 13.298C349.63 13.874 348.658 14.162 347.494 14.162C346.546 14.162 345.694 13.952 344.938 13.532C344.194 13.1 343.606 12.5 343.174 11.732C342.754 10.952 342.544 10.052 342.544 9.032C342.544 8.012 342.748 7.118 343.156 6.35C343.576 5.57 344.158 4.97 344.902 4.55C345.658 4.13 346.522 3.92 347.494 3.92C348.43 3.92 349.264 4.124 349.996 4.532C350.728 4.94 351.298 5.516 351.706 6.26C352.114 6.992 352.318 7.838 352.318 8.798ZM350.176 8.15C350.164 7.394 349.894 6.788 349.366 6.332C348.838 5.876 348.184 5.648 347.404 5.648C346.696 5.648 346.09 5.876 345.586 6.332C345.082 6.776 344.782 7.382 344.686 8.15H350.176ZM358.038 14.162C357.258 14.162 356.556 14.024 355.932 13.748C355.32 13.46 354.834 13.076 354.474 12.596C354.114 12.104 353.922 11.558 353.898 10.958H356.022C356.058 11.378 356.256 11.732 356.616 12.02C356.988 12.296 357.45 12.434 358.002 12.434C358.578 12.434 359.022 12.326 359.334 12.11C359.658 11.882 359.82 11.594 359.82 11.246C359.82 10.874 359.64 10.598 359.28 10.418C358.932 10.238 358.374 10.04 357.606 9.824C356.862 9.62 356.256 9.422 355.788 9.23C355.32 9.038 354.912 8.744 354.564 8.348C354.228 7.952 354.06 7.43 354.06 6.782C354.06 6.254 354.216 5.774 354.528 5.342C354.84 4.898 355.284 4.55 355.86 4.298C356.448 4.046 357.12 3.92 357.876 3.92C359.004 3.92 359.91 4.208 360.594 4.784C361.29 5.348 361.662 6.122 361.71 7.106H359.658C359.622 6.662 359.442 6.308 359.118 6.044C358.794 5.78 358.356 5.648 357.804 5.648C357.264 5.648 356.85 5.75 356.562 5.954C356.274 6.158 356.13 6.428 356.13 6.764C356.13 7.028 356.226 7.25 356.418 7.43C356.61 7.61 356.844 7.754 357.12 7.862C357.396 7.958 357.804 8.084 358.344 8.24C359.064 8.432 359.652 8.63 360.108 8.834C360.576 9.026 360.978 9.314 361.314 9.698C361.65 10.082 361.824 10.592 361.836 11.228C361.836 11.792 361.68 12.296 361.368 12.74C361.056 13.184 360.612 13.532 360.036 13.784C359.472 14.036 358.806 14.162 358.038 14.162Z" fill="#5E6E89"/>
</svg>
