<svg width="1109" height="100" viewBox="0 0 1109 100" fill="none" xmlns="http://www.w3.org/2000/svg">
<path d="M374.803 85.126C373.963 85.126 373.207 84.982 372.535 84.694C371.863 84.394 371.335 83.974 370.951 83.434C370.567 82.894 370.375 82.264 370.375 81.544H372.571C372.619 82.084 372.829 82.528 373.201 82.876C373.585 83.224 374.119 83.398 374.803 83.398C375.511 83.398 376.063 83.23 376.459 82.894C376.855 82.546 377.053 82.102 377.053 81.562C377.053 81.142 376.927 80.8 376.675 80.536C376.435 80.272 376.129 80.068 375.757 79.924C375.397 79.78 374.893 79.624 374.245 79.456C373.429 79.24 372.763 79.024 372.247 78.808C371.743 78.58 371.311 78.232 370.951 77.764C370.591 77.296 370.411 76.672 370.411 75.892C370.411 75.172 370.591 74.542 370.951 74.002C371.311 73.462 371.815 73.048 372.463 72.76C373.111 72.472 373.861 72.328 374.713 72.328C375.925 72.328 376.915 72.634 377.683 73.246C378.463 73.846 378.895 74.674 378.979 75.73H376.711C376.675 75.274 376.459 74.884 376.063 74.56C375.667 74.236 375.145 74.074 374.497 74.074C373.909 74.074 373.429 74.224 373.057 74.524C372.685 74.824 372.499 75.256 372.499 75.82C372.499 76.204 372.613 76.522 372.841 76.774C373.081 77.014 373.381 77.206 373.741 77.35C374.101 77.494 374.593 77.65 375.217 77.818C376.045 78.046 376.717 78.274 377.233 78.502C377.761 78.73 378.205 79.084 378.565 79.564C378.937 80.032 379.123 80.662 379.123 81.454C379.123 82.09 378.949 82.69 378.601 83.254C378.265 83.818 377.767 84.274 377.107 84.622C376.459 84.958 375.691 85.126 374.803 85.126ZM385.946 85.162C385.01 85.162 384.164 84.952 383.408 84.532C382.652 84.1 382.058 83.5 381.626 82.732C381.194 81.952 380.978 81.052 380.978 80.032C380.978 79.024 381.2 78.13 381.644 77.35C382.088 76.57 382.694 75.97 383.462 75.55C384.23 75.13 385.088 74.92 386.036 74.92C386.984 74.92 387.842 75.13 388.61 75.55C389.378 75.97 389.984 76.57 390.428 77.35C390.872 78.13 391.094 79.024 391.094 80.032C391.094 81.04 390.866 81.934 390.41 82.714C389.954 83.494 389.33 84.1 388.538 84.532C387.758 84.952 386.894 85.162 385.946 85.162ZM385.946 83.38C386.474 83.38 386.966 83.254 387.422 83.002C387.89 82.75 388.268 82.372 388.556 81.868C388.844 81.364 388.988 80.752 388.988 80.032C388.988 79.312 388.85 78.706 388.574 78.214C388.298 77.71 387.932 77.332 387.476 77.08C387.02 76.828 386.528 76.702 386 76.702C385.472 76.702 384.98 76.828 384.524 77.08C384.08 77.332 383.726 77.71 383.462 78.214C383.198 78.706 383.066 79.312 383.066 80.032C383.066 81.1 383.336 81.928 383.876 82.516C384.428 83.092 385.118 83.38 385.946 83.38ZM405.229 74.92C406.009 74.92 406.705 75.082 407.317 75.406C407.941 75.73 408.427 76.21 408.775 76.846C409.135 77.482 409.315 78.25 409.315 79.15V85H407.281V79.456C407.281 78.568 407.059 77.89 406.615 77.422C406.171 76.942 405.565 76.702 404.797 76.702C404.029 76.702 403.417 76.942 402.961 77.422C402.517 77.89 402.295 78.568 402.295 79.456V85H400.261V79.456C400.261 78.568 400.039 77.89 399.595 77.422C399.151 76.942 398.545 76.702 397.777 76.702C397.009 76.702 396.397 76.942 395.941 77.422C395.497 77.89 395.275 78.568 395.275 79.456V85H393.223V75.082H395.275V76.216C395.611 75.808 396.037 75.49 396.553 75.262C397.069 75.034 397.621 74.92 398.209 74.92C399.001 74.92 399.709 75.088 400.333 75.424C400.957 75.76 401.437 76.246 401.773 76.882C402.073 76.282 402.541 75.808 403.177 75.46C403.813 75.1 404.497 74.92 405.229 74.92ZM421.116 79.798C421.116 80.17 421.092 80.506 421.044 80.806H413.466C413.526 81.598 413.82 82.234 414.348 82.714C414.876 83.194 415.524 83.434 416.292 83.434C417.396 83.434 418.176 82.972 418.632 82.048H420.846C420.546 82.96 420 83.71 419.208 84.298C418.428 84.874 417.456 85.162 416.292 85.162C415.344 85.162 414.492 84.952 413.736 84.532C412.992 84.1 412.404 83.5 411.972 82.732C411.552 81.952 411.342 81.052 411.342 80.032C411.342 79.012 411.546 78.118 411.954 77.35C412.374 76.57 412.956 75.97 413.7 75.55C414.456 75.13 415.32 74.92 416.292 74.92C417.228 74.92 418.062 75.124 418.794 75.532C419.526 75.94 420.096 76.516 420.504 77.26C420.912 77.992 421.116 78.838 421.116 79.798ZM418.974 79.15C418.962 78.394 418.692 77.788 418.164 77.332C417.636 76.876 416.982 76.648 416.202 76.648C415.494 76.648 414.888 76.876 414.384 77.332C413.88 77.776 413.58 78.382 413.484 79.15H418.974ZM427.327 79.996C427.327 79 427.531 78.118 427.939 77.35C428.359 76.582 428.923 75.988 429.631 75.568C430.351 75.136 431.149 74.92 432.025 74.92C432.793 74.92 433.471 75.076 434.059 75.388C434.659 75.7 435.121 76.078 435.445 76.522V75.082H437.515V89.716H435.445V83.56C435.121 84.004 434.653 84.382 434.041 84.694C433.429 85.006 432.733 85.162 431.953 85.162C431.101 85.162 430.321 84.946 429.613 84.514C428.917 84.07 428.359 83.458 427.939 82.678C427.531 81.886 427.327 80.992 427.327 79.996ZM435.445 80.032C435.445 79.348 435.301 78.754 435.013 78.25C434.737 77.746 434.371 77.362 433.915 77.098C433.459 76.834 432.967 76.702 432.439 76.702C431.911 76.702 431.419 76.834 430.963 77.098C430.507 77.35 430.135 77.728 429.847 78.232C429.571 78.724 429.433 79.312 429.433 79.996C429.433 80.68 429.571 81.28 429.847 81.796C430.135 82.312 430.507 82.708 430.963 82.984C431.431 83.248 431.923 83.38 432.439 83.38C432.967 83.38 433.459 83.248 433.915 82.984C434.371 82.72 434.737 82.336 435.013 81.832C435.301 81.316 435.445 80.716 435.445 80.032ZM449.292 75.082V85H447.24V83.83C446.916 84.238 446.49 84.562 445.962 84.802C445.446 85.03 444.894 85.144 444.306 85.144C443.526 85.144 442.824 84.982 442.2 84.658C441.588 84.334 441.102 83.854 440.742 83.218C440.394 82.582 440.22 81.814 440.22 80.914V75.082H442.254V80.608C442.254 81.496 442.476 82.18 442.92 82.66C443.364 83.128 443.97 83.362 444.738 83.362C445.506 83.362 446.112 83.128 446.556 82.66C447.012 82.18 447.24 81.496 447.24 80.608V75.082H449.292ZM456.402 85.162C455.466 85.162 454.62 84.952 453.864 84.532C453.108 84.1 452.514 83.5 452.082 82.732C451.65 81.952 451.434 81.052 451.434 80.032C451.434 79.024 451.656 78.13 452.1 77.35C452.544 76.57 453.15 75.97 453.918 75.55C454.686 75.13 455.544 74.92 456.492 74.92C457.44 74.92 458.298 75.13 459.066 75.55C459.834 75.97 460.44 76.57 460.884 77.35C461.328 78.13 461.55 79.024 461.55 80.032C461.55 81.04 461.322 81.934 460.866 82.714C460.41 83.494 459.786 84.1 458.994 84.532C458.214 84.952 457.35 85.162 456.402 85.162ZM456.402 83.38C456.93 83.38 457.422 83.254 457.878 83.002C458.346 82.75 458.724 82.372 459.012 81.868C459.3 81.364 459.444 80.752 459.444 80.032C459.444 79.312 459.306 78.706 459.03 78.214C458.754 77.71 458.388 77.332 457.932 77.08C457.476 76.828 456.984 76.702 456.456 76.702C455.928 76.702 455.436 76.828 454.98 77.08C454.536 77.332 454.182 77.71 453.918 78.214C453.654 78.706 453.522 79.312 453.522 80.032C453.522 81.1 453.792 81.928 454.332 82.516C454.884 83.092 455.574 83.38 456.402 83.38ZM466.072 76.756V82.246C466.072 82.618 466.156 82.888 466.324 83.056C466.504 83.212 466.804 83.29 467.224 83.29H468.484V85H466.864C465.94 85 465.232 84.784 464.74 84.352C464.248 83.92 464.002 83.218 464.002 82.246V76.756H462.832V75.082H464.002V72.616H466.072V75.082H468.484V76.756H466.072ZM479.566 79.798C479.566 80.17 479.542 80.506 479.494 80.806H471.916C471.976 81.598 472.27 82.234 472.798 82.714C473.326 83.194 473.974 83.434 474.742 83.434C475.846 83.434 476.626 82.972 477.082 82.048H479.296C478.996 82.96 478.45 83.71 477.658 84.298C476.878 84.874 475.906 85.162 474.742 85.162C473.794 85.162 472.942 84.952 472.186 84.532C471.442 84.1 470.854 83.5 470.422 82.732C470.002 81.952 469.792 81.052 469.792 80.032C469.792 79.012 469.996 78.118 470.404 77.35C470.824 76.57 471.406 75.97 472.15 75.55C472.906 75.13 473.77 74.92 474.742 74.92C475.678 74.92 476.512 75.124 477.244 75.532C477.976 75.94 478.546 76.516 478.954 77.26C479.362 77.992 479.566 78.838 479.566 79.798ZM477.424 79.15C477.412 78.394 477.142 77.788 476.614 77.332C476.086 76.876 475.432 76.648 474.652 76.648C473.944 76.648 473.338 76.876 472.834 77.332C472.33 77.776 472.03 78.382 471.934 79.15H477.424ZM485.285 85.162C484.505 85.162 483.803 85.024 483.179 84.748C482.567 84.46 482.081 84.076 481.721 83.596C481.361 83.104 481.169 82.558 481.145 81.958H483.269C483.305 82.378 483.503 82.732 483.863 83.02C484.235 83.296 484.697 83.434 485.249 83.434C485.825 83.434 486.269 83.326 486.581 83.11C486.905 82.882 487.067 82.594 487.067 82.246C487.067 81.874 486.887 81.598 486.527 81.418C486.179 81.238 485.621 81.04 484.853 80.824C484.109 80.62 483.503 80.422 483.035 80.23C482.567 80.038 482.159 79.744 481.811 79.348C481.475 78.952 481.307 78.43 481.307 77.782C481.307 77.254 481.463 76.774 481.775 76.342C482.087 75.898 482.531 75.55 483.107 75.298C483.695 75.046 484.367 74.92 485.123 74.92C486.251 74.92 487.157 75.208 487.841 75.784C488.537 76.348 488.909 77.122 488.957 78.106H486.905C486.869 77.662 486.689 77.308 486.365 77.044C486.041 76.78 485.603 76.648 485.051 76.648C484.511 76.648 484.097 76.75 483.809 76.954C483.521 77.158 483.377 77.428 483.377 77.764C483.377 78.028 483.473 78.25 483.665 78.43C483.857 78.61 484.091 78.754 484.367 78.862C484.643 78.958 485.051 79.084 485.591 79.24C486.311 79.432 486.899 79.63 487.355 79.834C487.823 80.026 488.225 80.314 488.561 80.698C488.897 81.082 489.071 81.592 489.083 82.228C489.083 82.792 488.927 83.296 488.615 83.74C488.303 84.184 487.859 84.532 487.283 84.784C486.719 85.036 486.053 85.162 485.285 85.162ZM500.334 76.756H498.498V85H496.428V76.756H495.258V75.082H496.428V74.38C496.428 73.24 496.728 72.412 497.328 71.896C497.94 71.368 498.894 71.104 500.19 71.104V72.814C499.566 72.814 499.128 72.934 498.876 73.174C498.624 73.402 498.498 73.804 498.498 74.38V75.082H500.334V76.756ZM504.305 76.522C504.605 76.018 505.001 75.628 505.493 75.352C505.997 75.064 506.591 74.92 507.275 74.92V77.044H506.753C505.949 77.044 505.337 77.248 504.917 77.656C504.509 78.064 504.305 78.772 504.305 79.78V85H502.253V75.082H504.305V76.522ZM513.563 85.162C512.627 85.162 511.781 84.952 511.025 84.532C510.269 84.1 509.675 83.5 509.243 82.732C508.811 81.952 508.595 81.052 508.595 80.032C508.595 79.024 508.817 78.13 509.261 77.35C509.705 76.57 510.311 75.97 511.079 75.55C511.847 75.13 512.705 74.92 513.653 74.92C514.601 74.92 515.459 75.13 516.227 75.55C516.995 75.97 517.601 76.57 518.045 77.35C518.489 78.13 518.711 79.024 518.711 80.032C518.711 81.04 518.483 81.934 518.027 82.714C517.571 83.494 516.947 84.1 516.155 84.532C515.375 84.952 514.511 85.162 513.563 85.162ZM513.563 83.38C514.091 83.38 514.583 83.254 515.039 83.002C515.507 82.75 515.885 82.372 516.173 81.868C516.461 81.364 516.605 80.752 516.605 80.032C516.605 79.312 516.467 78.706 516.191 78.214C515.915 77.71 515.549 77.332 515.093 77.08C514.637 76.828 514.145 76.702 513.617 76.702C513.089 76.702 512.597 76.828 512.141 77.08C511.697 77.332 511.343 77.71 511.079 78.214C510.815 78.706 510.683 79.312 510.683 80.032C510.683 81.1 510.953 81.928 511.493 82.516C512.045 83.092 512.735 83.38 513.563 83.38ZM532.845 74.92C533.625 74.92 534.321 75.082 534.933 75.406C535.557 75.73 536.043 76.21 536.391 76.846C536.751 77.482 536.931 78.25 536.931 79.15V85H534.897V79.456C534.897 78.568 534.675 77.89 534.231 77.422C533.787 76.942 533.181 76.702 532.413 76.702C531.645 76.702 531.033 76.942 530.577 77.422C530.133 77.89 529.911 78.568 529.911 79.456V85H527.877V79.456C527.877 78.568 527.655 77.89 527.211 77.422C526.767 76.942 526.161 76.702 525.393 76.702C524.625 76.702 524.013 76.942 523.557 77.422C523.113 77.89 522.891 78.568 522.891 79.456V85H520.839V75.082H522.891V76.216C523.227 75.808 523.653 75.49 524.169 75.262C524.685 75.034 525.237 74.92 525.825 74.92C526.617 74.92 527.325 75.088 527.949 75.424C528.573 75.76 529.053 76.246 529.389 76.882C529.689 76.282 530.157 75.808 530.793 75.46C531.429 75.1 532.113 74.92 532.845 74.92ZM548.72 85.162C547.784 85.162 546.938 84.952 546.182 84.532C545.426 84.1 544.832 83.5 544.4 82.732C543.968 81.952 543.752 81.052 543.752 80.032C543.752 79.024 543.974 78.13 544.418 77.35C544.862 76.57 545.468 75.97 546.236 75.55C547.004 75.13 547.862 74.92 548.81 74.92C549.758 74.92 550.616 75.13 551.384 75.55C552.152 75.97 552.758 76.57 553.202 77.35C553.646 78.13 553.868 79.024 553.868 80.032C553.868 81.04 553.64 81.934 553.184 82.714C552.728 83.494 552.104 84.1 551.312 84.532C550.532 84.952 549.668 85.162 548.72 85.162ZM548.72 83.38C549.248 83.38 549.74 83.254 550.196 83.002C550.664 82.75 551.042 82.372 551.33 81.868C551.618 81.364 551.762 80.752 551.762 80.032C551.762 79.312 551.624 78.706 551.348 78.214C551.072 77.71 550.706 77.332 550.25 77.08C549.794 76.828 549.302 76.702 548.774 76.702C548.246 76.702 547.754 76.828 547.298 77.08C546.854 77.332 546.5 77.71 546.236 78.214C545.972 78.706 545.84 79.312 545.84 80.032C545.84 81.1 546.11 81.928 546.65 82.516C547.202 83.092 547.892 83.38 548.72 83.38ZM564.979 75.082V85H562.927V83.83C562.603 84.238 562.177 84.562 561.649 84.802C561.133 85.03 560.581 85.144 559.993 85.144C559.213 85.144 558.511 84.982 557.887 84.658C557.275 84.334 556.789 83.854 556.429 83.218C556.081 82.582 555.907 81.814 555.907 80.914V75.082H557.941V80.608C557.941 81.496 558.163 82.18 558.607 82.66C559.051 83.128 559.657 83.362 560.425 83.362C561.193 83.362 561.799 83.128 562.243 82.66C562.699 82.18 562.927 81.496 562.927 80.608V75.082H564.979ZM569.838 76.522C570.138 76.018 570.534 75.628 571.026 75.352C571.53 75.064 572.124 74.92 572.808 74.92V77.044H572.286C571.482 77.044 570.87 77.248 570.45 77.656C570.042 78.064 569.838 78.772 569.838 79.78V85H567.786V75.082H569.838V76.522ZM584.7 74.92C585.456 74.92 586.128 75.082 586.716 75.406C587.316 75.73 587.784 76.21 588.12 76.846C588.468 77.482 588.642 78.25 588.642 79.15V85H586.608V79.456C586.608 78.568 586.386 77.89 585.942 77.422C585.498 76.942 584.892 76.702 584.124 76.702C583.356 76.702 582.744 76.942 582.288 77.422C581.844 77.89 581.622 78.568 581.622 79.456V85H579.57V71.68H581.622V76.234C581.97 75.814 582.408 75.49 582.936 75.262C583.476 75.034 584.064 74.92 584.7 74.92ZM590.676 79.996C590.676 79 590.88 78.118 591.288 77.35C591.708 76.582 592.272 75.988 592.98 75.568C593.7 75.136 594.492 74.92 595.356 74.92C596.136 74.92 596.814 75.076 597.39 75.388C597.978 75.688 598.446 76.066 598.794 76.522V75.082H600.864V85H598.794V83.524C598.446 83.992 597.972 84.382 597.372 84.694C596.772 85.006 596.088 85.162 595.32 85.162C594.468 85.162 593.688 84.946 592.98 84.514C592.272 84.07 591.708 83.458 591.288 82.678C590.88 81.886 590.676 80.992 590.676 79.996ZM598.794 80.032C598.794 79.348 598.65 78.754 598.362 78.25C598.086 77.746 597.72 77.362 597.264 77.098C596.808 76.834 596.316 76.702 595.788 76.702C595.26 76.702 594.768 76.834 594.312 77.098C593.856 77.35 593.484 77.728 593.196 78.232C592.92 78.724 592.782 79.312 592.782 79.996C592.782 80.68 592.92 81.28 593.196 81.796C593.484 82.312 593.856 82.708 594.312 82.984C594.78 83.248 595.272 83.38 595.788 83.38C596.316 83.38 596.808 83.248 597.264 82.984C597.72 82.72 598.086 82.336 598.362 81.832C598.65 81.316 598.794 80.716 598.794 80.032ZM605.711 76.54C606.059 76.084 606.533 75.7 607.133 75.388C607.733 75.076 608.411 74.92 609.167 74.92C610.031 74.92 610.817 75.136 611.525 75.568C612.245 75.988 612.809 76.582 613.217 77.35C613.625 78.118 613.829 79 613.829 79.996C613.829 80.992 613.625 81.886 613.217 82.678C612.809 83.458 612.245 84.07 611.525 84.514C610.817 84.946 610.031 85.162 609.167 85.162C608.411 85.162 607.739 85.012 607.151 84.712C606.563 84.4 606.083 84.016 605.711 83.56V89.716H603.659V75.082H605.711V76.54ZM611.741 79.996C611.741 79.312 611.597 78.724 611.309 78.232C611.033 77.728 610.661 77.35 610.193 77.098C609.737 76.834 609.245 76.702 608.717 76.702C608.201 76.702 607.709 76.834 607.241 77.098C606.785 77.362 606.413 77.746 606.125 78.25C605.849 78.754 605.711 79.348 605.711 80.032C605.711 80.716 605.849 81.316 606.125 81.832C606.413 82.336 606.785 82.72 607.241 82.984C607.709 83.248 608.201 83.38 608.717 83.38C609.245 83.38 609.737 83.248 610.193 82.984C610.661 82.708 611.033 82.312 611.309 81.796C611.597 81.28 611.741 80.68 611.741 79.996ZM618.01 76.54C618.358 76.084 618.832 75.7 619.432 75.388C620.032 75.076 620.71 74.92 621.466 74.92C622.33 74.92 623.116 75.136 623.824 75.568C624.544 75.988 625.108 76.582 625.516 77.35C625.924 78.118 626.128 79 626.128 79.996C626.128 80.992 625.924 81.886 625.516 82.678C625.108 83.458 624.544 84.07 623.824 84.514C623.116 84.946 622.33 85.162 621.466 85.162C620.71 85.162 620.038 85.012 619.45 84.712C618.862 84.4 618.382 84.016 618.01 83.56V89.716H615.958V75.082H618.01V76.54ZM624.04 79.996C624.04 79.312 623.896 78.724 623.608 78.232C623.332 77.728 622.96 77.35 622.492 77.098C622.036 76.834 621.544 76.702 621.016 76.702C620.5 76.702 620.008 76.834 619.54 77.098C619.084 77.362 618.712 77.746 618.424 78.25C618.148 78.754 618.01 79.348 618.01 80.032C618.01 80.716 618.148 81.316 618.424 81.832C618.712 82.336 619.084 82.72 619.54 82.984C620.008 83.248 620.5 83.38 621.016 83.38C621.544 83.38 622.036 83.248 622.492 82.984C622.96 82.708 623.332 82.312 623.608 81.796C623.896 81.28 624.04 80.68 624.04 79.996ZM637.185 75.082L631.101 89.662H628.977L630.993 84.838L627.087 75.082H629.373L632.163 82.642L635.061 75.082H637.185ZM642.926 80.032C642.926 79.012 643.13 78.118 643.538 77.35C643.958 76.57 644.534 75.97 645.266 75.55C645.998 75.13 646.838 74.92 647.786 74.92C648.986 74.92 649.976 75.208 650.756 75.784C651.548 76.348 652.082 77.158 652.358 78.214H650.144C649.964 77.722 649.676 77.338 649.28 77.062C648.884 76.786 648.386 76.648 647.786 76.648C646.946 76.648 646.274 76.948 645.77 77.548C645.278 78.136 645.032 78.964 645.032 80.032C645.032 81.1 645.278 81.934 645.77 82.534C646.274 83.134 646.946 83.434 647.786 83.434C648.974 83.434 649.76 82.912 650.144 81.868H652.358C652.07 82.876 651.53 83.68 650.738 84.28C649.946 84.868 648.962 85.162 647.786 85.162C646.838 85.162 645.998 84.952 645.266 84.532C644.534 84.1 643.958 83.5 643.538 82.732C643.13 81.952 642.926 81.052 642.926 80.032ZM663.485 75.082V85H661.433V83.83C661.109 84.238 660.683 84.562 660.155 84.802C659.639 85.03 659.087 85.144 658.499 85.144C657.719 85.144 657.017 84.982 656.393 84.658C655.781 84.334 655.295 83.854 654.935 83.218C654.587 82.582 654.413 81.814 654.413 80.914V75.082H656.447V80.608C656.447 81.496 656.669 82.18 657.113 82.66C657.557 83.128 658.163 83.362 658.931 83.362C659.699 83.362 660.305 83.128 660.749 82.66C661.205 82.18 661.433 81.496 661.433 80.608V75.082H663.485ZM669.892 85.162C669.112 85.162 668.41 85.024 667.786 84.748C667.174 84.46 666.688 84.076 666.328 83.596C665.968 83.104 665.776 82.558 665.752 81.958H667.876C667.912 82.378 668.11 82.732 668.47 83.02C668.842 83.296 669.304 83.434 669.856 83.434C670.432 83.434 670.876 83.326 671.188 83.11C671.512 82.882 671.674 82.594 671.674 82.246C671.674 81.874 671.494 81.598 671.134 81.418C670.786 81.238 670.228 81.04 669.46 80.824C668.716 80.62 668.11 80.422 667.642 80.23C667.174 80.038 666.766 79.744 666.418 79.348C666.082 78.952 665.914 78.43 665.914 77.782C665.914 77.254 666.07 76.774 666.382 76.342C666.694 75.898 667.138 75.55 667.714 75.298C668.302 75.046 668.974 74.92 669.73 74.92C670.858 74.92 671.764 75.208 672.448 75.784C673.144 76.348 673.516 77.122 673.564 78.106H671.512C671.476 77.662 671.296 77.308 670.972 77.044C670.648 76.78 670.21 76.648 669.658 76.648C669.118 76.648 668.704 76.75 668.416 76.954C668.128 77.158 667.984 77.428 667.984 77.764C667.984 78.028 668.08 78.25 668.272 78.43C668.464 78.61 668.698 78.754 668.974 78.862C669.25 78.958 669.658 79.084 670.198 79.24C670.918 79.432 671.506 79.63 671.962 79.834C672.43 80.026 672.832 80.314 673.168 80.698C673.504 81.082 673.678 81.592 673.69 82.228C673.69 82.792 673.534 83.296 673.222 83.74C672.91 84.184 672.466 84.532 671.89 84.784C671.326 85.036 670.66 85.162 669.892 85.162ZM678.401 76.756V82.246C678.401 82.618 678.485 82.888 678.653 83.056C678.833 83.212 679.133 83.29 679.553 83.29H680.813V85H679.193C678.269 85 677.561 84.784 677.069 84.352C676.577 83.92 676.331 83.218 676.331 82.246V76.756H675.161V75.082H676.331V72.616H678.401V75.082H680.813V76.756H678.401ZM687.106 85.162C686.17 85.162 685.324 84.952 684.568 84.532C683.812 84.1 683.218 83.5 682.786 82.732C682.354 81.952 682.138 81.052 682.138 80.032C682.138 79.024 682.36 78.13 682.804 77.35C683.248 76.57 683.854 75.97 684.622 75.55C685.39 75.13 686.248 74.92 687.196 74.92C688.144 74.92 689.002 75.13 689.77 75.55C690.538 75.97 691.144 76.57 691.588 77.35C692.032 78.13 692.254 79.024 692.254 80.032C692.254 81.04 692.026 81.934 691.57 82.714C691.114 83.494 690.49 84.1 689.698 84.532C688.918 84.952 688.054 85.162 687.106 85.162ZM687.106 83.38C687.634 83.38 688.126 83.254 688.582 83.002C689.05 82.75 689.428 82.372 689.716 81.868C690.004 81.364 690.148 80.752 690.148 80.032C690.148 79.312 690.01 78.706 689.734 78.214C689.458 77.71 689.092 77.332 688.636 77.08C688.18 76.828 687.688 76.702 687.16 76.702C686.632 76.702 686.14 76.828 685.684 77.08C685.24 77.332 684.886 77.71 684.622 78.214C684.358 78.706 684.226 79.312 684.226 80.032C684.226 81.1 684.496 81.928 685.036 82.516C685.588 83.092 686.278 83.38 687.106 83.38ZM706.389 74.92C707.169 74.92 707.865 75.082 708.477 75.406C709.101 75.73 709.587 76.21 709.935 76.846C710.295 77.482 710.475 78.25 710.475 79.15V85H708.441V79.456C708.441 78.568 708.219 77.89 707.775 77.422C707.331 76.942 706.725 76.702 705.957 76.702C705.189 76.702 704.577 76.942 704.121 77.422C703.677 77.89 703.455 78.568 703.455 79.456V85H701.421V79.456C701.421 78.568 701.199 77.89 700.755 77.422C700.311 76.942 699.705 76.702 698.937 76.702C698.169 76.702 697.557 76.942 697.101 77.422C696.657 77.89 696.435 78.568 696.435 79.456V85H694.383V75.082H696.435V76.216C696.771 75.808 697.197 75.49 697.713 75.262C698.229 75.034 698.781 74.92 699.369 74.92C700.161 74.92 700.869 75.088 701.493 75.424C702.117 75.76 702.597 76.246 702.933 76.882C703.233 76.282 703.701 75.808 704.337 75.46C704.973 75.1 705.657 74.92 706.389 74.92ZM722.276 79.798C722.276 80.17 722.252 80.506 722.204 80.806H714.626C714.686 81.598 714.98 82.234 715.508 82.714C716.036 83.194 716.684 83.434 717.452 83.434C718.556 83.434 719.336 82.972 719.792 82.048H722.006C721.706 82.96 721.16 83.71 720.368 84.298C719.588 84.874 718.616 85.162 717.452 85.162C716.504 85.162 715.652 84.952 714.896 84.532C714.152 84.1 713.564 83.5 713.132 82.732C712.712 81.952 712.502 81.052 712.502 80.032C712.502 79.012 712.706 78.118 713.114 77.35C713.534 76.57 714.116 75.97 714.86 75.55C715.616 75.13 716.48 74.92 717.452 74.92C718.388 74.92 719.222 75.124 719.954 75.532C720.686 75.94 721.256 76.516 721.664 77.26C722.072 77.992 722.276 78.838 722.276 79.798ZM720.134 79.15C720.122 78.394 719.852 77.788 719.324 77.332C718.796 76.876 718.142 76.648 717.362 76.648C716.654 76.648 716.048 76.876 715.544 77.332C715.04 77.776 714.74 78.382 714.644 79.15H720.134ZM726.448 76.522C726.748 76.018 727.144 75.628 727.636 75.352C728.14 75.064 728.734 74.92 729.418 74.92V77.044H728.896C728.092 77.044 727.48 77.248 727.06 77.656C726.652 78.064 726.448 78.772 726.448 79.78V85H724.396V75.082H726.448V76.522ZM735.004 85.162C734.224 85.162 733.522 85.024 732.898 84.748C732.286 84.46 731.8 84.076 731.44 83.596C731.08 83.104 730.888 82.558 730.864 81.958H732.988C733.024 82.378 733.222 82.732 733.582 83.02C733.954 83.296 734.416 83.434 734.968 83.434C735.544 83.434 735.988 83.326 736.3 83.11C736.624 82.882 736.786 82.594 736.786 82.246C736.786 81.874 736.606 81.598 736.246 81.418C735.898 81.238 735.34 81.04 734.572 80.824C733.828 80.62 733.222 80.422 732.754 80.23C732.286 80.038 731.878 79.744 731.53 79.348C731.194 78.952 731.026 78.43 731.026 77.782C731.026 77.254 731.182 76.774 731.494 76.342C731.806 75.898 732.25 75.55 732.826 75.298C733.414 75.046 734.086 74.92 734.842 74.92C735.97 74.92 736.876 75.208 737.56 75.784C738.256 76.348 738.628 77.122 738.676 78.106H736.624C736.588 77.662 736.408 77.308 736.084 77.044C735.76 76.78 735.322 76.648 734.77 76.648C734.23 76.648 733.816 76.75 733.528 76.954C733.24 77.158 733.096 77.428 733.096 77.764C733.096 78.028 733.192 78.25 733.384 78.43C733.576 78.61 733.81 78.754 734.086 78.862C734.362 78.958 734.77 79.084 735.31 79.24C736.03 79.432 736.618 79.63 737.074 79.834C737.542 80.026 737.944 80.314 738.28 80.698C738.616 81.082 738.79 81.592 738.802 82.228C738.802 82.792 738.646 83.296 738.334 83.74C738.022 84.184 737.578 84.532 737.002 84.784C736.438 85.036 735.772 85.162 735.004 85.162Z" fill="#5E6E89"/>
<path d="M452.07 15.2V18.92H444.67V43H440.11V18.92H432.67V15.2H452.07ZM475.988 31.44C475.988 32.2667 475.935 33.0133 475.828 33.68H458.988C459.122 35.44 459.775 36.8533 460.948 37.92C462.122 38.9867 463.562 39.52 465.268 39.52C467.722 39.52 469.455 38.4933 470.468 36.44H475.388C474.722 38.4667 473.508 40.1333 471.748 41.44C470.015 42.72 467.855 43.36 465.268 43.36C463.162 43.36 461.268 42.8933 459.588 41.96C457.935 41 456.628 39.6667 455.668 37.96C454.735 36.2267 454.268 34.2267 454.268 31.96C454.268 29.6933 454.722 27.7067 455.628 26C456.562 24.2667 457.855 22.9333 459.508 22C461.188 21.0667 463.108 20.6 465.268 20.6C467.348 20.6 469.202 21.0533 470.828 21.96C472.455 22.8667 473.722 24.1467 474.628 25.8C475.535 27.4267 475.988 29.3067 475.988 31.44ZM471.228 30C471.202 28.32 470.602 26.9733 469.428 25.96C468.255 24.9467 466.802 24.44 465.068 24.44C463.495 24.44 462.148 24.9467 461.028 25.96C459.908 26.9467 459.242 28.2933 459.028 30H471.228ZM487.576 43.36C485.842 43.36 484.282 43.0533 482.896 42.44C481.536 41.8 480.456 40.9467 479.656 39.88C478.856 38.7867 478.429 37.5733 478.376 36.24H483.096C483.176 37.1733 483.616 37.96 484.416 38.6C485.242 39.2133 486.269 39.52 487.496 39.52C488.776 39.52 489.762 39.28 490.456 38.8C491.176 38.2933 491.536 37.6533 491.536 36.88C491.536 36.0533 491.136 35.44 490.336 35.04C489.562 34.64 488.322 34.2 486.616 33.72C484.962 33.2667 483.616 32.8267 482.576 32.4C481.536 31.9733 480.629 31.32 479.856 30.44C479.109 29.56 478.736 28.4 478.736 26.96C478.736 25.7867 479.082 24.72 479.776 23.76C480.469 22.7733 481.456 22 482.736 21.44C484.042 20.88 485.536 20.6 487.216 20.6C489.722 20.6 491.736 21.24 493.256 22.52C494.802 23.7733 495.629 25.4933 495.736 27.68H491.176C491.096 26.6933 490.696 25.9067 489.976 25.32C489.256 24.7333 488.282 24.44 487.056 24.44C485.856 24.44 484.936 24.6667 484.296 25.12C483.656 25.5733 483.336 26.1733 483.336 26.92C483.336 27.5067 483.549 28 483.976 28.4C484.402 28.8 484.922 29.12 485.536 29.36C486.149 29.5733 487.056 29.8533 488.256 30.2C489.856 30.6267 491.162 31.0667 492.176 31.52C493.216 31.9467 494.109 32.5867 494.856 33.44C495.602 34.2933 495.989 35.4267 496.016 36.84C496.016 38.0933 495.669 39.2133 494.976 40.2C494.282 41.1867 493.296 41.96 492.016 42.52C490.762 43.08 489.282 43.36 487.576 43.36ZM505.363 24.68V36.88C505.363 37.7067 505.55 38.3067 505.923 38.68C506.323 39.0267 506.99 39.2 507.923 39.2H510.723V43H507.123C505.07 43 503.496 42.52 502.403 41.56C501.31 40.6 500.763 39.04 500.763 36.88V24.68H498.163V20.96H500.763V15.48H505.363V20.96H510.723V24.68H505.363ZM516.346 18.04C515.519 18.04 514.826 17.76 514.266 17.2C513.706 16.64 513.426 15.9467 513.426 15.12C513.426 14.2933 513.706 13.6 514.266 13.04C514.826 12.48 515.519 12.2 516.346 12.2C517.146 12.2 517.826 12.48 518.386 13.04C518.946 13.6 519.226 14.2933 519.226 15.12C519.226 15.9467 518.946 16.64 518.386 17.2C517.826 17.76 517.146 18.04 516.346 18.04ZM518.586 20.96V43H514.026V20.96H518.586ZM550.353 20.6C552.086 20.6 553.633 20.96 554.993 21.68C556.379 22.4 557.459 23.4667 558.233 24.88C559.033 26.2933 559.433 28 559.433 30V43H554.913V30.68C554.913 28.7067 554.419 27.2 553.433 26.16C552.446 25.0933 551.099 24.56 549.393 24.56C547.686 24.56 546.326 25.0933 545.313 26.16C544.326 27.2 543.833 28.7067 543.833 30.68V43H539.313V30.68C539.313 28.7067 538.819 27.2 537.833 26.16C536.846 25.0933 535.499 24.56 533.793 24.56C532.086 24.56 530.726 25.0933 529.713 26.16C528.726 27.2 528.233 28.7067 528.233 30.68V43H523.673V20.96H528.233V23.48C528.979 22.5733 529.926 21.8667 531.073 21.36C532.219 20.8533 533.446 20.6 534.753 20.6C536.513 20.6 538.086 20.9733 539.473 21.72C540.859 22.4667 541.926 23.5467 542.673 24.96C543.339 23.6267 544.379 22.5733 545.793 21.8C547.206 21 548.726 20.6 550.353 20.6ZM573.895 43.36C571.815 43.36 569.935 42.8933 568.255 41.96C566.575 41 565.255 39.6667 564.295 37.96C563.335 36.2267 562.855 34.2267 562.855 31.96C562.855 29.72 563.349 27.7333 564.335 26C565.322 24.2667 566.669 22.9333 568.375 22C570.082 21.0667 571.989 20.6 574.095 20.6C576.202 20.6 578.109 21.0667 579.815 22C581.522 22.9333 582.869 24.2667 583.855 26C584.842 27.7333 585.335 29.72 585.335 31.96C585.335 34.2 584.829 36.1867 583.815 37.92C582.802 39.6533 581.415 41 579.655 41.96C577.922 42.8933 576.002 43.36 573.895 43.36ZM573.895 39.4C575.069 39.4 576.162 39.12 577.175 38.56C578.215 38 579.055 37.16 579.695 36.04C580.335 34.92 580.655 33.56 580.655 31.96C580.655 30.36 580.349 29.0133 579.735 27.92C579.122 26.8 578.309 25.96 577.295 25.4C576.282 24.84 575.189 24.56 574.015 24.56C572.842 24.56 571.749 24.84 570.735 25.4C569.749 25.96 568.962 26.8 568.375 27.92C567.789 29.0133 567.495 30.36 567.495 31.96C567.495 34.3333 568.095 36.1733 569.295 37.48C570.522 38.76 572.055 39.4 573.895 39.4ZM600.063 20.6C601.796 20.6 603.343 20.96 604.703 21.68C606.09 22.4 607.17 23.4667 607.943 24.88C608.716 26.2933 609.103 28 609.103 30V43H604.583V30.68C604.583 28.7067 604.09 27.2 603.103 26.16C602.116 25.0933 600.77 24.56 599.063 24.56C597.356 24.56 595.996 25.0933 594.983 26.16C593.996 27.2 593.503 28.7067 593.503 30.68V43H588.943V20.96H593.503V23.48C594.25 22.5733 595.196 21.8667 596.343 21.36C597.516 20.8533 598.756 20.6 600.063 20.6ZM616.34 18.04C615.513 18.04 614.82 17.76 614.26 17.2C613.7 16.64 613.42 15.9467 613.42 15.12C613.42 14.2933 613.7 13.6 614.26 13.04C614.82 12.48 615.513 12.2 616.34 12.2C617.14 12.2 617.82 12.48 618.38 13.04C618.94 13.6 619.22 14.2933 619.22 15.12C619.22 15.9467 618.94 16.64 618.38 17.2C617.82 17.76 617.14 18.04 616.34 18.04ZM618.58 20.96V43H614.02V20.96H618.58ZM622.146 31.88C622.146 29.6667 622.6 27.7067 623.506 26C624.44 24.2933 625.693 22.9733 627.266 22.04C628.866 21.08 630.626 20.6 632.546 20.6C634.28 20.6 635.786 20.9467 637.066 21.64C638.373 22.3067 639.413 23.1467 640.186 24.16V20.96H644.786V43H640.186V39.72C639.413 40.76 638.36 41.6267 637.026 42.32C635.693 43.0133 634.173 43.36 632.466 43.36C630.573 43.36 628.84 42.88 627.266 41.92C625.693 40.9333 624.44 39.5733 623.506 37.84C622.6 36.08 622.146 34.0933 622.146 31.88ZM640.186 31.96C640.186 30.44 639.866 29.12 639.226 28C638.613 26.88 637.8 26.0267 636.786 25.44C635.773 24.8533 634.68 24.56 633.506 24.56C632.333 24.56 631.24 24.8533 630.226 25.44C629.213 26 628.386 26.84 627.746 27.96C627.133 29.0533 626.826 30.36 626.826 31.88C626.826 33.4 627.133 34.7333 627.746 35.88C628.386 37.0267 629.213 37.9067 630.226 38.52C631.266 39.1067 632.36 39.4 633.506 39.4C634.68 39.4 635.773 39.1067 636.786 38.52C637.8 37.9333 638.613 37.08 639.226 35.96C639.866 34.8133 640.186 33.48 640.186 31.96ZM654.436 13.4V43H649.876V13.4H654.436ZM667.523 43.36C665.789 43.36 664.229 43.0533 662.843 42.44C661.483 41.8 660.403 40.9467 659.603 39.88C658.803 38.7867 658.376 37.5733 658.323 36.24H663.043C663.123 37.1733 663.563 37.96 664.363 38.6C665.189 39.2133 666.216 39.52 667.443 39.52C668.723 39.52 669.709 39.28 670.403 38.8C671.123 38.2933 671.483 37.6533 671.483 36.88C671.483 36.0533 671.083 35.44 670.283 35.04C669.509 34.64 668.269 34.2 666.563 33.72C664.909 33.2667 663.563 32.8267 662.523 32.4C661.483 31.9733 660.576 31.32 659.803 30.44C659.056 29.56 658.683 28.4 658.683 26.96C658.683 25.7867 659.029 24.72 659.723 23.76C660.416 22.7733 661.403 22 662.683 21.44C663.989 20.88 665.483 20.6 667.163 20.6C669.669 20.6 671.683 21.24 673.203 22.52C674.749 23.7733 675.576 25.4933 675.683 27.68H671.123C671.043 26.6933 670.643 25.9067 669.923 25.32C669.203 24.7333 668.229 24.44 667.003 24.44C665.803 24.44 664.883 24.6667 664.243 25.12C663.603 25.5733 663.283 26.1733 663.283 26.92C663.283 27.5067 663.496 28 663.923 28.4C664.349 28.8 664.869 29.12 665.483 29.36C666.096 29.5733 667.003 29.8533 668.203 30.2C669.803 30.6267 671.109 31.0667 672.123 31.52C673.163 31.9467 674.056 32.5867 674.803 33.44C675.549 34.2933 675.936 35.4267 675.963 36.84C675.963 38.0933 675.616 39.2133 674.923 40.2C674.229 41.1867 673.243 41.96 671.963 42.52C670.709 43.08 669.229 43.36 667.523 43.36Z" fill="#0B254B"/>
</svg>
