<svg width="1109" height="100" viewBox="0 0 1109 100" fill="none" xmlns="http://www.w3.org/2000/svg">
<path d="M374.801 85.126C373.637 85.126 372.563 84.856 371.579 84.316C370.607 83.764 369.833 83.002 369.257 82.03C368.693 81.046 368.411 79.942 368.411 78.718C368.411 77.494 368.693 76.396 369.257 75.424C369.833 74.452 370.607 73.696 371.579 73.156C372.563 72.604 373.637 72.328 374.801 72.328C375.977 72.328 377.051 72.604 378.023 73.156C379.007 73.696 379.781 74.452 380.345 75.424C380.909 76.396 381.191 77.494 381.191 78.718C381.191 79.942 380.909 81.046 380.345 82.03C379.781 83.002 379.007 83.764 378.023 84.316C377.051 84.856 375.977 85.126 374.801 85.126ZM374.801 83.344C375.629 83.344 376.367 83.158 377.015 82.786C377.663 82.402 378.167 81.862 378.527 81.166C378.899 80.458 379.085 79.642 379.085 78.718C379.085 77.794 378.899 76.984 378.527 76.288C378.167 75.592 377.663 75.058 377.015 74.686C376.367 74.314 375.629 74.128 374.801 74.128C373.973 74.128 373.235 74.314 372.587 74.686C371.939 75.058 371.429 75.592 371.057 76.288C370.697 76.984 370.517 77.794 370.517 78.718C370.517 79.642 370.697 80.458 371.057 81.166C371.429 81.862 371.939 82.402 372.587 82.786C373.235 83.158 373.973 83.344 374.801 83.344ZM392.292 75.082V85H390.24V83.83C389.916 84.238 389.49 84.562 388.962 84.802C388.446 85.03 387.894 85.144 387.306 85.144C386.526 85.144 385.824 84.982 385.2 84.658C384.588 84.334 384.102 83.854 383.742 83.218C383.394 82.582 383.22 81.814 383.22 80.914V75.082H385.254V80.608C385.254 81.496 385.476 82.18 385.92 82.66C386.364 83.128 386.97 83.362 387.738 83.362C388.506 83.362 389.112 83.128 389.556 82.66C390.012 82.18 390.24 81.496 390.24 80.608V75.082H392.292ZM397.152 76.522C397.452 76.018 397.848 75.628 398.34 75.352C398.844 75.064 399.438 74.92 400.122 74.92V77.044H399.6C398.796 77.044 398.184 77.248 397.764 77.656C397.356 78.064 397.152 78.772 397.152 79.78V85H395.1V75.082H397.152V76.522ZM409.278 76.756V82.246C409.278 82.618 409.362 82.888 409.53 83.056C409.71 83.212 410.01 83.29 410.43 83.29H411.69V85H410.07C409.146 85 408.438 84.784 407.946 84.352C407.454 83.92 407.208 83.218 407.208 82.246V76.756H406.038V75.082H407.208V72.616H409.278V75.082H411.69V76.756H409.278ZM417.983 85.162C417.047 85.162 416.201 84.952 415.445 84.532C414.689 84.1 414.095 83.5 413.663 82.732C413.231 81.952 413.015 81.052 413.015 80.032C413.015 79.024 413.237 78.13 413.681 77.35C414.125 76.57 414.731 75.97 415.499 75.55C416.267 75.13 417.125 74.92 418.073 74.92C419.021 74.92 419.879 75.13 420.647 75.55C421.415 75.97 422.021 76.57 422.465 77.35C422.909 78.13 423.131 79.024 423.131 80.032C423.131 81.04 422.903 81.934 422.447 82.714C421.991 83.494 421.367 84.1 420.575 84.532C419.795 84.952 418.931 85.162 417.983 85.162ZM417.983 83.38C418.511 83.38 419.003 83.254 419.459 83.002C419.927 82.75 420.305 82.372 420.593 81.868C420.881 81.364 421.025 80.752 421.025 80.032C421.025 79.312 420.887 78.706 420.611 78.214C420.335 77.71 419.969 77.332 419.513 77.08C419.057 76.828 418.565 76.702 418.037 76.702C417.509 76.702 417.017 76.828 416.561 77.08C416.117 77.332 415.763 77.71 415.499 78.214C415.235 78.706 415.103 79.312 415.103 80.032C415.103 81.1 415.373 81.928 415.913 82.516C416.465 83.092 417.155 83.38 417.983 83.38ZM427.312 76.54C427.66 76.084 428.134 75.7 428.734 75.388C429.334 75.076 430.012 74.92 430.768 74.92C431.632 74.92 432.418 75.136 433.126 75.568C433.846 75.988 434.41 76.582 434.818 77.35C435.226 78.118 435.43 79 435.43 79.996C435.43 80.992 435.226 81.886 434.818 82.678C434.41 83.458 433.846 84.07 433.126 84.514C432.418 84.946 431.632 85.162 430.768 85.162C430.012 85.162 429.34 85.012 428.752 84.712C428.164 84.4 427.684 84.016 427.312 83.56V89.716H425.26V75.082H427.312V76.54ZM433.342 79.996C433.342 79.312 433.198 78.724 432.91 78.232C432.634 77.728 432.262 77.35 431.794 77.098C431.338 76.834 430.846 76.702 430.318 76.702C429.802 76.702 429.31 76.834 428.842 77.098C428.386 77.362 428.014 77.746 427.726 78.25C427.45 78.754 427.312 79.348 427.312 80.032C427.312 80.716 427.45 81.316 427.726 81.832C428.014 82.336 428.386 82.72 428.842 82.984C429.31 83.248 429.802 83.38 430.318 83.38C430.846 83.38 431.338 83.248 431.794 82.984C432.262 82.708 432.634 82.312 432.91 81.796C433.198 81.28 433.342 80.68 433.342 79.996ZM445.935 85.162C445.155 85.162 444.453 85.024 443.829 84.748C443.217 84.46 442.731 84.076 442.371 83.596C442.011 83.104 441.819 82.558 441.795 81.958H443.919C443.955 82.378 444.153 82.732 444.513 83.02C444.885 83.296 445.347 83.434 445.899 83.434C446.475 83.434 446.919 83.326 447.231 83.11C447.555 82.882 447.717 82.594 447.717 82.246C447.717 81.874 447.537 81.598 447.177 81.418C446.829 81.238 446.271 81.04 445.503 80.824C444.759 80.62 444.153 80.422 443.685 80.23C443.217 80.038 442.809 79.744 442.461 79.348C442.125 78.952 441.957 78.43 441.957 77.782C441.957 77.254 442.113 76.774 442.425 76.342C442.737 75.898 443.181 75.55 443.757 75.298C444.345 75.046 445.017 74.92 445.773 74.92C446.901 74.92 447.807 75.208 448.491 75.784C449.187 76.348 449.559 77.122 449.607 78.106H447.555C447.519 77.662 447.339 77.308 447.015 77.044C446.691 76.78 446.253 76.648 445.701 76.648C445.161 76.648 444.747 76.75 444.459 76.954C444.171 77.158 444.027 77.428 444.027 77.764C444.027 78.028 444.123 78.25 444.315 78.43C444.507 78.61 444.741 78.754 445.017 78.862C445.293 78.958 445.701 79.084 446.241 79.24C446.961 79.432 447.549 79.63 448.005 79.834C448.473 80.026 448.875 80.314 449.211 80.698C449.547 81.082 449.721 81.592 449.733 82.228C449.733 82.792 449.577 83.296 449.265 83.74C448.953 84.184 448.509 84.532 447.933 84.784C447.369 85.036 446.703 85.162 445.935 85.162ZM461.14 79.798C461.14 80.17 461.116 80.506 461.068 80.806H453.49C453.55 81.598 453.844 82.234 454.372 82.714C454.9 83.194 455.548 83.434 456.316 83.434C457.42 83.434 458.2 82.972 458.656 82.048H460.87C460.57 82.96 460.024 83.71 459.232 84.298C458.452 84.874 457.48 85.162 456.316 85.162C455.368 85.162 454.516 84.952 453.76 84.532C453.016 84.1 452.428 83.5 451.996 82.732C451.576 81.952 451.366 81.052 451.366 80.032C451.366 79.012 451.57 78.118 451.978 77.35C452.398 76.57 452.98 75.97 453.724 75.55C454.48 75.13 455.344 74.92 456.316 74.92C457.252 74.92 458.086 75.124 458.818 75.532C459.55 75.94 460.12 76.516 460.528 77.26C460.936 77.992 461.14 78.838 461.14 79.798ZM458.998 79.15C458.986 78.394 458.716 77.788 458.188 77.332C457.66 76.876 457.006 76.648 456.226 76.648C455.518 76.648 454.912 76.876 454.408 77.332C453.904 77.776 453.604 78.382 453.508 79.15H458.998ZM465.311 71.68V85H463.259V71.68H465.311ZM470.157 71.68V85H468.105V71.68H470.157ZM473.995 73.768C473.623 73.768 473.311 73.642 473.059 73.39C472.807 73.138 472.681 72.826 472.681 72.454C472.681 72.082 472.807 71.77 473.059 71.518C473.311 71.266 473.623 71.14 473.995 71.14C474.355 71.14 474.661 71.266 474.913 71.518C475.165 71.77 475.291 72.082 475.291 72.454C475.291 72.826 475.165 73.138 474.913 73.39C474.661 73.642 474.355 73.768 473.995 73.768ZM475.003 75.082V85H472.951V75.082H475.003ZM482.801 74.92C483.581 74.92 484.277 75.082 484.889 75.406C485.513 75.73 485.999 76.21 486.347 76.846C486.695 77.482 486.869 78.25 486.869 79.15V85H484.835V79.456C484.835 78.568 484.613 77.89 484.169 77.422C483.725 76.942 483.119 76.702 482.351 76.702C481.583 76.702 480.971 76.942 480.515 77.422C480.071 77.89 479.849 78.568 479.849 79.456V85H477.797V75.082H479.849V76.216C480.185 75.808 480.611 75.49 481.127 75.262C481.655 75.034 482.213 74.92 482.801 74.92ZM493.583 74.92C494.351 74.92 495.029 75.076 495.617 75.388C496.217 75.688 496.685 76.066 497.021 76.522V75.082H499.091V85.162C499.091 86.074 498.899 86.884 498.515 87.592C498.131 88.312 497.573 88.876 496.841 89.284C496.121 89.692 495.257 89.896 494.249 89.896C492.905 89.896 491.789 89.578 490.901 88.942C490.013 88.318 489.509 87.466 489.389 86.386H491.423C491.579 86.902 491.909 87.316 492.413 87.628C492.929 87.952 493.541 88.114 494.249 88.114C495.077 88.114 495.743 87.862 496.247 87.358C496.763 86.854 497.021 86.122 497.021 85.162V83.506C496.673 83.974 496.199 84.37 495.599 84.694C495.011 85.006 494.339 85.162 493.583 85.162C492.719 85.162 491.927 84.946 491.207 84.514C490.499 84.07 489.935 83.458 489.515 82.678C489.107 81.886 488.903 80.992 488.903 79.996C488.903 79 489.107 78.118 489.515 77.35C489.935 76.582 490.499 75.988 491.207 75.568C491.927 75.136 492.719 74.92 493.583 74.92ZM497.021 80.032C497.021 79.348 496.877 78.754 496.589 78.25C496.313 77.746 495.947 77.362 495.491 77.098C495.035 76.834 494.543 76.702 494.015 76.702C493.487 76.702 492.995 76.834 492.539 77.098C492.083 77.35 491.711 77.728 491.423 78.232C491.147 78.724 491.009 79.312 491.009 79.996C491.009 80.68 491.147 81.28 491.423 81.796C491.711 82.312 492.083 82.708 492.539 82.984C493.007 83.248 493.499 83.38 494.015 83.38C494.543 83.38 495.035 83.248 495.491 82.984C495.947 82.72 496.313 82.336 496.589 81.832C496.877 81.316 497.021 80.716 497.021 80.032ZM508.714 76.54C509.062 76.084 509.536 75.7 510.136 75.388C510.736 75.076 511.414 74.92 512.17 74.92C513.034 74.92 513.82 75.136 514.528 75.568C515.248 75.988 515.812 76.582 516.22 77.35C516.628 78.118 516.832 79 516.832 79.996C516.832 80.992 516.628 81.886 516.22 82.678C515.812 83.458 515.248 84.07 514.528 84.514C513.82 84.946 513.034 85.162 512.17 85.162C511.414 85.162 510.742 85.012 510.154 84.712C509.566 84.4 509.086 84.016 508.714 83.56V89.716H506.662V75.082H508.714V76.54ZM514.744 79.996C514.744 79.312 514.6 78.724 514.312 78.232C514.036 77.728 513.664 77.35 513.196 77.098C512.74 76.834 512.248 76.702 511.72 76.702C511.204 76.702 510.712 76.834 510.244 77.098C509.788 77.362 509.416 77.746 509.128 78.25C508.852 78.754 508.714 79.348 508.714 80.032C508.714 80.716 508.852 81.316 509.128 81.832C509.416 82.336 509.788 82.72 510.244 82.984C510.712 83.248 511.204 83.38 511.72 83.38C512.248 83.38 512.74 83.248 513.196 82.984C513.664 82.708 514.036 82.312 514.312 81.796C514.6 81.28 514.744 80.68 514.744 79.996ZM521.013 76.522C521.313 76.018 521.709 75.628 522.201 75.352C522.705 75.064 523.299 74.92 523.983 74.92V77.044H523.461C522.657 77.044 522.045 77.248 521.625 77.656C521.217 78.064 521.013 78.772 521.013 79.78V85H518.961V75.082H521.013V76.522ZM530.271 85.162C529.335 85.162 528.489 84.952 527.733 84.532C526.977 84.1 526.383 83.5 525.951 82.732C525.519 81.952 525.303 81.052 525.303 80.032C525.303 79.024 525.525 78.13 525.969 77.35C526.413 76.57 527.019 75.97 527.787 75.55C528.555 75.13 529.413 74.92 530.361 74.92C531.309 74.92 532.167 75.13 532.935 75.55C533.703 75.97 534.309 76.57 534.753 77.35C535.197 78.13 535.419 79.024 535.419 80.032C535.419 81.04 535.191 81.934 534.735 82.714C534.279 83.494 533.655 84.1 532.863 84.532C532.083 84.952 531.219 85.162 530.271 85.162ZM530.271 83.38C530.799 83.38 531.291 83.254 531.747 83.002C532.215 82.75 532.593 82.372 532.881 81.868C533.169 81.364 533.313 80.752 533.313 80.032C533.313 79.312 533.175 78.706 532.899 78.214C532.623 77.71 532.257 77.332 531.801 77.08C531.345 76.828 530.853 76.702 530.325 76.702C529.797 76.702 529.305 76.828 528.849 77.08C528.405 77.332 528.051 77.71 527.787 78.214C527.523 78.706 527.391 79.312 527.391 80.032C527.391 81.1 527.661 81.928 528.201 82.516C528.753 83.092 529.443 83.38 530.271 83.38ZM536.864 79.996C536.864 79 537.068 78.118 537.476 77.35C537.896 76.582 538.46 75.988 539.168 75.568C539.888 75.136 540.686 74.92 541.562 74.92C542.21 74.92 542.846 75.064 543.47 75.352C544.106 75.628 544.61 76 544.982 76.468V71.68H547.052V85H544.982V83.506C544.646 83.986 544.178 84.382 543.578 84.694C542.99 85.006 542.312 85.162 541.544 85.162C540.68 85.162 539.888 84.946 539.168 84.514C538.46 84.07 537.896 83.458 537.476 82.678C537.068 81.886 536.864 80.992 536.864 79.996ZM544.982 80.032C544.982 79.348 544.838 78.754 544.55 78.25C544.274 77.746 543.908 77.362 543.452 77.098C542.996 76.834 542.504 76.702 541.976 76.702C541.448 76.702 540.956 76.834 540.5 77.098C540.044 77.35 539.672 77.728 539.384 78.232C539.108 78.724 538.97 79.312 538.97 79.996C538.97 80.68 539.108 81.28 539.384 81.796C539.672 82.312 540.044 82.708 540.5 82.984C540.968 83.248 541.46 83.38 541.976 83.38C542.504 83.38 542.996 83.248 543.452 82.984C543.908 82.72 544.274 82.336 544.55 81.832C544.838 81.316 544.982 80.716 544.982 80.032ZM558.829 75.082V85H556.777V83.83C556.453 84.238 556.027 84.562 555.499 84.802C554.983 85.03 554.431 85.144 553.843 85.144C553.063 85.144 552.361 84.982 551.737 84.658C551.125 84.334 550.639 83.854 550.279 83.218C549.931 82.582 549.757 81.814 549.757 80.914V75.082H551.791V80.608C551.791 81.496 552.013 82.18 552.457 82.66C552.901 83.128 553.507 83.362 554.275 83.362C555.043 83.362 555.649 83.128 556.093 82.66C556.549 82.18 556.777 81.496 556.777 80.608V75.082H558.829ZM560.952 80.032C560.952 79.012 561.156 78.118 561.564 77.35C561.984 76.57 562.56 75.97 563.292 75.55C564.024 75.13 564.864 74.92 565.812 74.92C567.012 74.92 568.002 75.208 568.782 75.784C569.574 76.348 570.108 77.158 570.384 78.214H568.17C567.99 77.722 567.702 77.338 567.306 77.062C566.91 76.786 566.412 76.648 565.812 76.648C564.972 76.648 564.3 76.948 563.796 77.548C563.304 78.136 563.058 78.964 563.058 80.032C563.058 81.1 563.304 81.934 563.796 82.534C564.3 83.134 564.972 83.434 565.812 83.434C567 83.434 567.786 82.912 568.17 81.868H570.384C570.096 82.876 569.556 83.68 568.764 84.28C567.972 84.868 566.988 85.162 565.812 85.162C564.864 85.162 564.024 84.952 563.292 84.532C562.56 84.1 561.984 83.5 561.564 82.732C561.156 81.952 560.952 81.052 560.952 80.032ZM574.924 76.756V82.246C574.924 82.618 575.008 82.888 575.176 83.056C575.356 83.212 575.656 83.29 576.076 83.29H577.336V85H575.716C574.792 85 574.084 84.784 573.592 84.352C573.1 83.92 572.854 83.218 572.854 82.246V76.756H571.684V75.082H572.854V72.616H574.924V75.082H577.336V76.756H574.924ZM586.497 76.756V82.246C586.497 82.618 586.581 82.888 586.749 83.056C586.929 83.212 587.229 83.29 587.649 83.29H588.909V85H587.289C586.365 85 585.657 84.784 585.165 84.352C584.673 83.92 584.427 83.218 584.427 82.246V76.756H583.257V75.082H584.427V72.616H586.497V75.082H588.909V76.756H586.497ZM596.03 74.92C596.786 74.92 597.458 75.082 598.046 75.406C598.646 75.73 599.114 76.21 599.45 76.846C599.798 77.482 599.972 78.25 599.972 79.15V85H597.938V79.456C597.938 78.568 597.716 77.89 597.272 77.422C596.828 76.942 596.222 76.702 595.454 76.702C594.686 76.702 594.074 76.942 593.618 77.422C593.174 77.89 592.952 78.568 592.952 79.456V85H590.9V71.68H592.952V76.234C593.3 75.814 593.738 75.49 594.266 75.262C594.806 75.034 595.394 74.92 596.03 74.92ZM602.005 79.996C602.005 79 602.209 78.118 602.617 77.35C603.037 76.582 603.601 75.988 604.309 75.568C605.029 75.136 605.821 74.92 606.685 74.92C607.465 74.92 608.143 75.076 608.719 75.388C609.307 75.688 609.775 76.066 610.123 76.522V75.082H612.193V85H610.123V83.524C609.775 83.992 609.301 84.382 608.701 84.694C608.101 85.006 607.417 85.162 606.649 85.162C605.797 85.162 605.017 84.946 604.309 84.514C603.601 84.07 603.037 83.458 602.617 82.678C602.209 81.886 602.005 80.992 602.005 79.996ZM610.123 80.032C610.123 79.348 609.979 78.754 609.691 78.25C609.415 77.746 609.049 77.362 608.593 77.098C608.137 76.834 607.645 76.702 607.117 76.702C606.589 76.702 606.097 76.834 605.641 77.098C605.185 77.35 604.813 77.728 604.525 78.232C604.249 78.724 604.111 79.312 604.111 79.996C604.111 80.68 604.249 81.28 604.525 81.796C604.813 82.312 605.185 82.708 605.641 82.984C606.109 83.248 606.601 83.38 607.117 83.38C607.645 83.38 608.137 83.248 608.593 82.984C609.049 82.72 609.415 82.336 609.691 81.832C609.979 81.316 610.123 80.716 610.123 80.032ZM617.382 76.756V82.246C617.382 82.618 617.466 82.888 617.634 83.056C617.814 83.212 618.114 83.29 618.534 83.29H619.794V85H618.174C617.25 85 616.542 84.784 616.05 84.352C615.558 83.92 615.312 83.218 615.312 82.246V76.756H614.142V75.082H615.312V72.616H617.382V75.082H619.794V76.756H617.382ZM635.49 75.082L629.406 89.662H627.282L629.298 84.838L625.392 75.082H627.678L630.468 82.642L633.366 75.082H635.49ZM641.44 85.162C640.504 85.162 639.658 84.952 638.902 84.532C638.146 84.1 637.552 83.5 637.12 82.732C636.688 81.952 636.472 81.052 636.472 80.032C636.472 79.024 636.694 78.13 637.138 77.35C637.582 76.57 638.188 75.97 638.956 75.55C639.724 75.13 640.582 74.92 641.53 74.92C642.478 74.92 643.336 75.13 644.104 75.55C644.872 75.97 645.478 76.57 645.922 77.35C646.366 78.13 646.588 79.024 646.588 80.032C646.588 81.04 646.36 81.934 645.904 82.714C645.448 83.494 644.824 84.1 644.032 84.532C643.252 84.952 642.388 85.162 641.44 85.162ZM641.44 83.38C641.968 83.38 642.46 83.254 642.916 83.002C643.384 82.75 643.762 82.372 644.05 81.868C644.338 81.364 644.482 80.752 644.482 80.032C644.482 79.312 644.344 78.706 644.068 78.214C643.792 77.71 643.426 77.332 642.97 77.08C642.514 76.828 642.022 76.702 641.494 76.702C640.966 76.702 640.474 76.828 640.018 77.08C639.574 77.332 639.22 77.71 638.956 78.214C638.692 78.706 638.56 79.312 638.56 80.032C638.56 81.1 638.83 81.928 639.37 82.516C639.922 83.092 640.612 83.38 641.44 83.38ZM657.699 75.082V85H655.647V83.83C655.323 84.238 654.897 84.562 654.369 84.802C653.853 85.03 653.301 85.144 652.713 85.144C651.933 85.144 651.231 84.982 650.607 84.658C649.995 84.334 649.509 83.854 649.149 83.218C648.801 82.582 648.627 81.814 648.627 80.914V75.082H650.661V80.608C650.661 81.496 650.883 82.18 651.327 82.66C651.771 83.128 652.377 83.362 653.145 83.362C653.913 83.362 654.519 83.128 654.963 82.66C655.419 82.18 655.647 81.496 655.647 80.608V75.082H657.699ZM677.288 74.92C678.068 74.92 678.764 75.082 679.376 75.406C680 75.73 680.486 76.21 680.834 76.846C681.194 77.482 681.374 78.25 681.374 79.15V85H679.34V79.456C679.34 78.568 679.118 77.89 678.674 77.422C678.23 76.942 677.624 76.702 676.856 76.702C676.088 76.702 675.476 76.942 675.02 77.422C674.576 77.89 674.354 78.568 674.354 79.456V85H672.32V79.456C672.32 78.568 672.098 77.89 671.654 77.422C671.21 76.942 670.604 76.702 669.836 76.702C669.068 76.702 668.456 76.942 668 77.422C667.556 77.89 667.334 78.568 667.334 79.456V85H665.282V75.082H667.334V76.216C667.67 75.808 668.096 75.49 668.612 75.262C669.128 75.034 669.68 74.92 670.268 74.92C671.06 74.92 671.768 75.088 672.392 75.424C673.016 75.76 673.496 76.246 673.832 76.882C674.132 76.282 674.6 75.808 675.236 75.46C675.872 75.1 676.556 74.92 677.288 74.92ZM683.401 79.996C683.401 79 683.605 78.118 684.013 77.35C684.433 76.582 684.997 75.988 685.705 75.568C686.425 75.136 687.217 74.92 688.081 74.92C688.861 74.92 689.539 75.076 690.115 75.388C690.703 75.688 691.171 76.066 691.519 76.522V75.082H693.589V85H691.519V83.524C691.171 83.992 690.697 84.382 690.097 84.694C689.497 85.006 688.813 85.162 688.045 85.162C687.193 85.162 686.413 84.946 685.705 84.514C684.997 84.07 684.433 83.458 684.013 82.678C683.605 81.886 683.401 80.992 683.401 79.996ZM691.519 80.032C691.519 79.348 691.375 78.754 691.087 78.25C690.811 77.746 690.445 77.362 689.989 77.098C689.533 76.834 689.041 76.702 688.513 76.702C687.985 76.702 687.493 76.834 687.037 77.098C686.581 77.35 686.209 77.728 685.921 78.232C685.645 78.724 685.507 79.312 685.507 79.996C685.507 80.68 685.645 81.28 685.921 81.796C686.209 82.312 686.581 82.708 687.037 82.984C687.505 83.248 687.997 83.38 688.513 83.38C689.041 83.38 689.533 83.248 689.989 82.984C690.445 82.72 690.811 82.336 691.087 81.832C691.375 81.316 691.519 80.716 691.519 80.032ZM705.312 75.082L699.228 89.662H697.104L699.12 84.838L695.214 75.082H697.5L700.29 82.642L703.188 75.082H705.312ZM713.789 71.68V85H711.737V71.68H713.789ZM717.627 73.768C717.255 73.768 716.943 73.642 716.691 73.39C716.439 73.138 716.313 72.826 716.313 72.454C716.313 72.082 716.439 71.77 716.691 71.518C716.943 71.266 717.255 71.14 717.627 71.14C717.987 71.14 718.293 71.266 718.545 71.518C718.797 71.77 718.923 72.082 718.923 72.454C718.923 72.826 718.797 73.138 718.545 73.39C718.293 73.642 717.987 73.768 717.627 73.768ZM718.635 75.082V85H716.583V75.082H718.635ZM725.353 80.05L729.925 85H727.153L723.481 80.734V85H721.429V71.68H723.481V79.42L727.081 75.082H729.925L725.353 80.05ZM740.586 79.798C740.586 80.17 740.562 80.506 740.514 80.806H732.936C732.996 81.598 733.29 82.234 733.818 82.714C734.346 83.194 734.994 83.434 735.762 83.434C736.866 83.434 737.646 82.972 738.102 82.048H740.316C740.016 82.96 739.47 83.71 738.678 84.298C737.898 84.874 736.926 85.162 735.762 85.162C734.814 85.162 733.962 84.952 733.206 84.532C732.462 84.1 731.874 83.5 731.442 82.732C731.022 81.952 730.812 81.052 730.812 80.032C730.812 79.012 731.016 78.118 731.424 77.35C731.844 76.57 732.426 75.97 733.17 75.55C733.926 75.13 734.79 74.92 735.762 74.92C736.698 74.92 737.532 75.124 738.264 75.532C738.996 75.94 739.566 76.516 739.974 77.26C740.382 77.992 740.586 78.838 740.586 79.798ZM738.444 79.15C738.432 78.394 738.162 77.788 737.634 77.332C737.106 76.876 736.452 76.648 735.672 76.648C734.964 76.648 734.358 76.876 733.854 77.332C733.35 77.776 733.05 78.382 732.954 79.15H738.444Z" fill="#5E6E89"/>
<path d="M501.945 23.48C501.945 24.8933 501.611 26.2267 500.945 27.48C500.278 28.7333 499.211 29.76 497.745 30.56C496.278 31.3333 494.398 31.72 492.105 31.72H487.065V43H482.505V15.2H492.105C494.238 15.2 496.038 15.5733 497.505 16.32C498.998 17.04 500.105 18.0267 500.825 19.28C501.571 20.5333 501.945 21.9333 501.945 23.48ZM492.105 28C493.838 28 495.131 27.6133 495.985 26.84C496.838 26.04 497.265 24.92 497.265 23.48C497.265 20.44 495.545 18.92 492.105 18.92H487.065V28H492.105ZM514.954 43.36C512.874 43.36 510.994 42.8933 509.314 41.96C507.634 41 506.314 39.6667 505.354 37.96C504.394 36.2267 503.914 34.2267 503.914 31.96C503.914 29.72 504.407 27.7333 505.394 26C506.38 24.2667 507.727 22.9333 509.434 22C511.14 21.0667 513.047 20.6 515.154 20.6C517.26 20.6 519.167 21.0667 520.874 22C522.58 22.9333 523.927 24.2667 524.914 26C525.9 27.7333 526.394 29.72 526.394 31.96C526.394 34.2 525.887 36.1867 524.874 37.92C523.86 39.6533 522.474 41 520.714 41.96C518.98 42.8933 517.06 43.36 514.954 43.36ZM514.954 39.4C516.127 39.4 517.22 39.12 518.234 38.56C519.274 38 520.114 37.16 520.754 36.04C521.394 34.92 521.714 33.56 521.714 31.96C521.714 30.36 521.407 29.0133 520.794 27.92C520.18 26.8 519.367 25.96 518.354 25.4C517.34 24.84 516.247 24.56 515.074 24.56C513.9 24.56 512.807 24.84 511.794 25.4C510.807 25.96 510.02 26.8 509.434 27.92C508.847 29.0133 508.554 30.36 508.554 31.96C508.554 34.3333 509.154 36.1733 510.354 37.48C511.58 38.76 513.114 39.4 514.954 39.4ZM534.562 24.2C535.335 23.1867 536.388 22.3333 537.722 21.64C539.055 20.9467 540.562 20.6 542.242 20.6C544.162 20.6 545.908 21.08 547.482 22.04C549.082 22.9733 550.335 24.2933 551.242 26C552.148 27.7067 552.602 29.6667 552.602 31.88C552.602 34.0933 552.148 36.08 551.242 37.84C550.335 39.5733 549.082 40.9333 547.482 41.92C545.908 42.88 544.162 43.36 542.242 43.36C540.562 43.36 539.068 43.0267 537.762 42.36C536.455 41.6667 535.388 40.8133 534.562 39.8V53.48H530.002V20.96H534.562V24.2ZM547.962 31.88C547.962 30.36 547.642 29.0533 547.002 27.96C546.388 26.84 545.562 26 544.522 25.44C543.508 24.8533 542.415 24.56 541.242 24.56C540.095 24.56 539.002 24.8533 537.962 25.44C536.948 26.0267 536.122 26.88 535.482 28C534.868 29.12 534.562 30.44 534.562 31.96C534.562 33.48 534.868 34.8133 535.482 35.96C536.122 37.08 536.948 37.9333 537.962 38.52C539.002 39.1067 540.095 39.4 541.242 39.4C542.415 39.4 543.508 39.1067 544.522 38.52C545.562 37.9067 546.388 37.0267 547.002 35.88C547.642 34.7333 547.962 33.4 547.962 31.88ZM576.171 20.96V43H571.611V40.4C570.891 41.3067 569.944 42.0267 568.771 42.56C567.624 43.0667 566.398 43.32 565.091 43.32C563.358 43.32 561.798 42.96 560.411 42.24C559.051 41.52 557.971 40.4533 557.171 39.04C556.398 37.6267 556.011 35.92 556.011 33.92V20.96H560.531V33.24C560.531 35.2133 561.024 36.7333 562.011 37.8C562.998 38.84 564.344 39.36 566.051 39.36C567.758 39.36 569.104 38.84 570.091 37.8C571.104 36.7333 571.611 35.2133 571.611 33.24V20.96H576.171ZM585.848 13.4V43H581.288V13.4H585.848ZM589.414 31.88C589.414 29.6667 589.868 27.7067 590.774 26C591.708 24.2933 592.961 22.9733 594.534 22.04C596.134 21.08 597.894 20.6 599.814 20.6C601.548 20.6 603.054 20.9467 604.334 21.64C605.641 22.3067 606.681 23.1467 607.454 24.16V20.96H612.054V43H607.454V39.72C606.681 40.76 605.628 41.6267 604.294 42.32C602.961 43.0133 601.441 43.36 599.734 43.36C597.841 43.36 596.108 42.88 594.534 41.92C592.961 40.9333 591.708 39.5733 590.774 37.84C589.868 36.08 589.414 34.0933 589.414 31.88ZM607.454 31.96C607.454 30.44 607.134 29.12 606.494 28C605.881 26.88 605.068 26.0267 604.054 25.44C603.041 24.8533 601.948 24.56 600.774 24.56C599.601 24.56 598.508 24.8533 597.494 25.44C596.481 26 595.654 26.84 595.014 27.96C594.401 29.0533 594.094 30.36 594.094 31.88C594.094 33.4 594.401 34.7333 595.014 35.88C595.654 37.0267 596.481 37.9067 597.494 38.52C598.534 39.1067 599.628 39.4 600.774 39.4C601.948 39.4 603.041 39.1067 604.054 38.52C605.068 37.9333 605.881 37.08 606.494 35.96C607.134 34.8133 607.454 33.48 607.454 31.96ZM621.704 24.16C622.37 23.04 623.25 22.1733 624.344 21.56C625.464 20.92 626.784 20.6 628.304 20.6V25.32H627.144C625.357 25.32 623.997 25.7733 623.064 26.68C622.157 27.5867 621.704 29.16 621.704 31.4V43H617.144V20.96H621.704V24.16Z" fill="#0B254B"/>
</svg>
