<svg width="168" height="31" viewBox="0 0 168 31" fill="none" xmlns="http://www.w3.org/2000/svg">
<path d="M20.1056 10.48C20.1056 11.8933 19.7723 13.2267 19.1056 14.48C18.439 15.7333 17.3723 16.76 15.9056 17.56C14.439 18.3333 12.559 18.72 10.2656 18.72H5.22562V30H0.665619V2.2H10.2656C12.399 2.2 14.199 2.57333 15.6656 3.32C17.159 4.04 18.2656 5.02666 18.9856 6.28C19.7323 7.53333 20.1056 8.93333 20.1056 10.48ZM10.2656 15C11.999 15 13.2923 14.6133 14.1456 13.84C14.999 13.04 15.4256 11.92 15.4256 10.48C15.4256 7.44 13.7056 5.92 10.2656 5.92H5.22562V15H10.2656ZM28.1147 11.16C28.7814 10.04 29.6614 9.17333 30.7547 8.56C31.8747 7.92 33.1947 7.6 34.7147 7.6V12.32H33.5547C31.768 12.32 30.408 12.7733 29.4747 13.68C28.568 14.5867 28.1147 16.16 28.1147 18.4V30H23.5547V7.96H28.1147V11.16ZM47.5663 30.36C45.4863 30.36 43.6063 29.8933 41.9263 28.96C40.2463 28 38.9263 26.6667 37.9663 24.96C37.0063 23.2267 36.5263 21.2267 36.5263 18.96C36.5263 16.72 37.0196 14.7333 38.0063 13C38.9929 11.2667 40.3396 9.93333 42.0463 9C43.7529 8.06667 45.6596 7.6 47.7663 7.6C49.8729 7.6 51.7796 8.06667 53.4863 9C55.1929 9.93333 56.5396 11.2667 57.5263 13C58.5129 14.7333 59.0063 16.72 59.0063 18.96C59.0063 21.2 58.4996 23.1867 57.4863 24.92C56.4729 26.6533 55.0863 28 53.3263 28.96C51.5929 29.8933 49.6729 30.36 47.5663 30.36ZM47.5663 26.4C48.7396 26.4 49.8329 26.12 50.8463 25.56C51.8863 25 52.7263 24.16 53.3663 23.04C54.0063 21.92 54.3263 20.56 54.3263 18.96C54.3263 17.36 54.0196 16.0133 53.4063 14.92C52.7929 13.8 51.9796 12.96 50.9663 12.4C49.9529 11.84 48.8596 11.56 47.6863 11.56C46.5129 11.56 45.4196 11.84 44.4063 12.4C43.4196 12.96 42.6329 13.8 42.0463 14.92C41.4596 16.0133 41.1663 17.36 41.1663 18.96C41.1663 21.3333 41.7663 23.1733 42.9663 24.48C44.1929 25.76 45.7263 26.4 47.5663 26.4ZM61.0941 18.88C61.0941 16.6667 61.5474 14.7067 62.4541 13C63.3874 11.2933 64.6407 9.97333 66.2141 9.04C67.8141 8.08 69.5874 7.6 71.5341 7.6C72.9741 7.6 74.3874 7.92 75.7741 8.56C77.1874 9.17333 78.3074 10 79.1341 11.04V0.4H83.7341V30H79.1341V26.68C78.3874 27.7467 77.3474 28.6267 76.0141 29.32C74.7074 30.0133 73.2007 30.36 71.4941 30.36C69.5741 30.36 67.8141 29.88 66.2141 28.92C64.6407 27.9333 63.3874 26.5733 62.4541 24.84C61.5474 23.08 61.0941 21.0933 61.0941 18.88ZM79.1341 18.96C79.1341 17.44 78.8141 16.12 78.1741 15C77.5607 13.88 76.7474 13.0267 75.7341 12.44C74.7207 11.8533 73.6274 11.56 72.4541 11.56C71.2807 11.56 70.1874 11.8533 69.1741 12.44C68.1607 13 67.3341 13.84 66.6941 14.96C66.0807 16.0533 65.7741 17.36 65.7741 18.88C65.7741 20.4 66.0807 21.7333 66.6941 22.88C67.3341 24.0267 68.1607 24.9067 69.1741 25.52C70.2141 26.1067 71.3074 26.4 72.4541 26.4C73.6274 26.4 74.7207 26.1067 75.7341 25.52C76.7474 24.9333 77.5607 24.08 78.1741 22.96C78.8141 21.8133 79.1341 20.48 79.1341 18.96ZM108.783 7.96V30H104.223V27.4C103.503 28.3067 102.557 29.0267 101.383 29.56C100.237 30.0667 99.0101 30.32 97.7034 30.32C95.9701 30.32 94.4101 29.96 93.0234 29.24C91.6634 28.52 90.5834 27.4533 89.7834 26.04C89.0101 24.6267 88.6234 22.92 88.6234 20.92V7.96H93.1434V20.24C93.1434 22.2133 93.6368 23.7333 94.6234 24.8C95.6101 25.84 96.9568 26.36 98.6634 26.36C100.37 26.36 101.717 25.84 102.703 24.8C103.717 23.7333 104.223 22.2133 104.223 20.24V7.96H108.783ZM112.38 18.96C112.38 16.6933 112.833 14.7067 113.74 13C114.673 11.2667 115.953 9.93333 117.58 9C119.207 8.06667 121.073 7.6 123.18 7.6C125.847 7.6 128.047 8.24 129.78 9.52C131.54 10.7733 132.727 12.5733 133.34 14.92H128.42C128.02 13.8267 127.38 12.9733 126.5 12.36C125.62 11.7467 124.513 11.44 123.18 11.44C121.313 11.44 119.82 12.1067 118.7 13.44C117.607 14.7467 117.06 16.5867 117.06 18.96C117.06 21.3333 117.607 23.1867 118.7 24.52C119.82 25.8533 121.313 26.52 123.18 26.52C125.82 26.52 127.567 25.36 128.42 23.04H133.34C132.7 25.28 131.5 27.0667 129.74 28.4C127.98 29.7067 125.793 30.36 123.18 30.36C121.073 30.36 119.207 29.8933 117.58 28.96C115.953 28 114.673 26.6667 113.74 24.96C112.833 23.2267 112.38 21.2267 112.38 18.96ZM142.304 11.68V23.88C142.304 24.7067 142.491 25.3067 142.864 25.68C143.264 26.0267 143.931 26.2 144.864 26.2H147.664V30H144.064C142.011 30 140.438 29.52 139.344 28.56C138.251 27.6 137.704 26.04 137.704 23.88V11.68H135.104V7.96H137.704V2.48H142.304V7.96H147.664V11.68H142.304ZM158.967 30.36C157.234 30.36 155.674 30.0533 154.287 29.44C152.927 28.8 151.847 27.9467 151.047 26.88C150.247 25.7867 149.82 24.5733 149.767 23.24H154.487C154.567 24.1733 155.007 24.96 155.807 25.6C156.634 26.2133 157.66 26.52 158.887 26.52C160.167 26.52 161.154 26.28 161.847 25.8C162.567 25.2933 162.927 24.6533 162.927 23.88C162.927 23.0533 162.527 22.44 161.727 22.04C160.954 21.64 159.714 21.2 158.007 20.72C156.354 20.2667 155.007 19.8267 153.967 19.4C152.927 18.9733 152.02 18.32 151.247 17.44C150.5 16.56 150.127 15.4 150.127 13.96C150.127 12.7867 150.474 11.72 151.167 10.76C151.86 9.77333 152.847 9 154.127 8.44C155.434 7.88 156.927 7.6 158.607 7.6C161.114 7.6 163.127 8.24 164.647 9.52C166.194 10.7733 167.02 12.4933 167.127 14.68H162.567C162.487 13.6933 162.087 12.9067 161.367 12.32C160.647 11.7333 159.674 11.44 158.447 11.44C157.247 11.44 156.327 11.6667 155.687 12.12C155.047 12.5733 154.727 13.1733 154.727 13.92C154.727 14.5067 154.94 15 155.367 15.4C155.794 15.8 156.314 16.12 156.927 16.36C157.54 16.5733 158.447 16.8533 159.647 17.2C161.247 17.6267 162.554 18.0667 163.567 18.52C164.607 18.9467 165.5 19.5867 166.247 20.44C166.994 21.2933 167.38 22.4267 167.407 23.84C167.407 25.0933 167.06 26.2133 166.367 27.2C165.674 28.1867 164.687 28.96 163.407 29.52C162.154 30.08 160.674 30.36 158.967 30.36Z" fill="#0B254B"/>
</svg>
