<svg width="6" height="10" viewBox="0 0 6 10" fill="none" xmlns="http://www.w3.org/2000/svg">
<path fill-rule="evenodd" clip-rule="evenodd" d="M0.903637 1.02882C0.932666 0.999718 0.96715 0.976629 1.00512 0.960875C1.04308 0.945121 1.08378 0.937012 1.12489 0.937012C1.16599 0.937012 1.20669 0.945121 1.24466 0.960875C1.28262 0.976629 1.31711 0.999718 1.34614 1.02882L5.09614 4.77882C5.12524 4.80785 5.14833 4.84233 5.16408 4.8803C5.17983 4.91827 5.18794 4.95897 5.18794 5.00007C5.18794 5.04118 5.17983 5.08188 5.16408 5.11984C5.14833 5.15781 5.12524 5.19229 5.09614 5.22132L1.34614 8.97132C1.28746 9.03 1.20787 9.06297 1.12489 9.06297C1.0419 9.06297 0.962316 9.03 0.903637 8.97132C0.844958 8.91264 0.811992 8.83306 0.811992 8.75007C0.811992 8.66709 0.844958 8.5875 0.903637 8.52882L4.43301 5.00007L0.903637 1.47132C0.874535 1.44229 0.851446 1.40781 0.835692 1.36984C0.819938 1.33188 0.811829 1.29117 0.811829 1.25007C0.811829 1.20897 0.819938 1.16827 0.835692 1.1303C0.851446 1.09233 0.874535 1.05785 0.903637 1.02882Z" fill="black"/>
</svg>
